<?xml version="1.0" encoding="UTF-8" standalone="no"?>
<svg
   xmlns:dc="http://purl.org/dc/elements/1.1/"
   xmlns:cc="http://creativecommons.org/ns#"
   xmlns:rdf="http://www.w3.org/1999/02/22-rdf-syntax-ns#"
   xmlns:svg="http://www.w3.org/2000/svg"
   xmlns="http://www.w3.org/2000/svg"
   xmlns:xlink="http://www.w3.org/1999/xlink"
   xmlns:sodipodi="http://sodipodi.sourceforge.net/DTD/sodipodi-0.dtd"
   xmlns:inkscape="http://www.inkscape.org/namespaces/inkscape"
   id="svg8"
   version="1.1"
   viewBox="0 0 531.04786 116.41772"
   height="440.00397"
   width="2007.1101"
   sodipodi:docname="font_slogan.svg"
   inkscape:version="0.92.4 (5da689c313, 2019-01-14)">
  <sodipodi:namedview
     pagecolor="#ffffff"
     bordercolor="#666666"
     borderopacity="1"
     objecttolerance="10"
     gridtolerance="10"
     guidetolerance="10"
     inkscape:pageopacity="0"
     inkscape:pageshadow="2"
     inkscape:window-width="1920"
     inkscape:window-height="1171"
     id="namedview32"
     showgrid="false"
     inkscape:zoom="0.11859829"
     inkscape:cx="-1602.3733"
     inkscape:cy="730.4293"
     inkscape:window-x="3840"
     inkscape:window-y="0"
     inkscape:window-maximized="1"
     inkscape:current-layer="layer11"
     fit-margin-top="0"
     fit-margin-left="0"
     fit-margin-right="0"
     fit-margin-bottom="0"
     showguides="false"
     inkscape:guide-bbox="true"
     inkscape:snap-bbox="true"
     inkscape:bbox-paths="true"
     inkscape:bbox-nodes="true"
     inkscape:snap-bbox-edge-midpoints="true"
     inkscape:snap-bbox-midpoints="true"
     inkscape:object-paths="true"
     inkscape:snap-intersection-paths="true"
     inkscape:snap-smooth-nodes="true"
     inkscape:snap-midpoints="true"
     inkscape:snap-object-midpoints="true"
     inkscape:snap-center="true"
     inkscape:snap-text-baseline="true"
     inkscape:snap-page="true">
    <sodipodi:guide
       position="219.03474,458.28739"
       orientation="0,1"
       id="guide889"
       inkscape:locked="false" />
    <sodipodi:guide
       position="471.15032,8.199187"
       orientation="0,1"
       id="guide891"
       inkscape:locked="false" />
    <sodipodi:guide
       position="316.75262,54.52492"
       orientation="0,1"
       id="guide882"
       inkscape:locked="false" />
    <sodipodi:guide
       position="0.2668999,584.50117"
       orientation="1,0"
       id="guide990"
       inkscape:locked="false" />
    <sodipodi:guide
       position="531.04787,196.22202"
       orientation="1,0"
       id="guide992"
       inkscape:locked="false" />
    <sodipodi:guide
       position="483.75553,76.79826"
       orientation="1,0"
       id="guide998"
       inkscape:locked="false" />
  </sodipodi:namedview>
  <defs
     id="defs2">
    <linearGradient
       id="linearGradient877">
      <stop
         style="stop-color:#ffffff;stop-opacity:1;"
         offset="0"
         id="stop873" />
      <stop
         style="stop-color:#ffffff;stop-opacity:0;"
         offset="1"
         id="stop875" />
    </linearGradient>
    <linearGradient
       id="linearGradient876">
      <stop
         id="stop872"
         offset="0"
         style="stop-color:#ffffff;stop-opacity:1;" />
      <stop
         id="stop874"
         offset="1"
         style="stop-color:#ffffff;stop-opacity:0;" />
    </linearGradient>
    <radialGradient
       gradientTransform="matrix(1,-7.7618855e-6,-7.2182648e-8,1,-0.050978,-0.08284467)"
       gradientUnits="userSpaceOnUse"
       r="181.49884"
       fy="264.44559"
       fx="265.31461"
       cy="264.44559"
       cx="265.31461"
       id="radialGradient878"
       xlink:href="#linearGradient876" />
    <filter
       inkscape:label="Apparition"
       inkscape:menu="Blurs"
       inkscape:menu-tooltip="Edges are partly feathered out"
       style="color-interpolation-filters:sRGB"
       id="filter875">
      <feMorphology
         radius="4"
         in="SourceGraphic"
         result="result0"
         id="feMorphology869" />
      <feGaussianBlur
         in="result0"
         stdDeviation="8"
         result="result91"
         id="feGaussianBlur871" />
      <feComposite
         operator="in"
         in="SourceGraphic"
         in2="result91"
         id="feComposite873" />
    </filter>
    <filter
       inkscape:label="Apparition"
       inkscape:menu="Blurs"
       inkscape:menu-tooltip="Edges are partly feathered out"
       style="color-interpolation-filters:sRGB"
       id="filter883">
      <feMorphology
         radius="4"
         in="SourceGraphic"
         result="result0"
         id="feMorphology877" />
      <feGaussianBlur
         in="result0"
         stdDeviation="8"
         result="result91"
         id="feGaussianBlur879" />
      <feComposite
         operator="in"
         in="SourceGraphic"
         in2="result91"
         id="feComposite881" />
    </filter>
    <filter
       style="color-interpolation-filters:sRGB"
       inkscape:label="Drop Shadow"
       id="filter1591">
      <feFlood
         flood-opacity="0.498039"
         flood-color="rgb(0,0,0)"
         result="flood"
         id="feFlood1581" />
      <feComposite
         in="flood"
         in2="SourceGraphic"
         operator="out"
         result="composite1"
         id="feComposite1583" />
      <feGaussianBlur
         in="composite1"
         stdDeviation="9.98571"
         result="blur"
         id="feGaussianBlur1585" />
      <feOffset
         dx="0"
         dy="0"
         result="offset"
         id="feOffset1587" />
      <feComposite
         in="offset"
         in2="SourceGraphic"
         operator="atop"
         result="composite2"
         id="feComposite1589" />
    </filter>
    <filter
       style="color-interpolation-filters:sRGB"
       inkscape:label="Drop Shadow"
       id="filter1603">
      <feFlood
         flood-opacity="0.498039"
         flood-color="rgb(0,0,0)"
         result="flood"
         id="feFlood1593" />
      <feComposite
         in="flood"
         in2="SourceGraphic"
         operator="out"
         result="composite1"
         id="feComposite1595" />
      <feGaussianBlur
         in="composite1"
         stdDeviation="10"
         result="blur"
         id="feGaussianBlur1597" />
      <feOffset
         dx="0"
         dy="0"
         result="offset"
         id="feOffset1599" />
      <feComposite
         in="offset"
         in2="SourceGraphic"
         operator="atop"
         result="composite2"
         id="feComposite1601" />
    </filter>
    <filter
       style="color-interpolation-filters:sRGB"
       inkscape:label="Drop Shadow"
       id="filter1309">
      <feFlood
         flood-opacity="0.498039"
         flood-color="rgb(0,0,0)"
         result="flood"
         id="feFlood1299" />
      <feComposite
         in="flood"
         in2="SourceGraphic"
         operator="out"
         result="composite1"
         id="feComposite1301" />
      <feGaussianBlur
         in="composite1"
         stdDeviation="10"
         result="blur"
         id="feGaussianBlur1303" />
      <feOffset
         dx="0"
         dy="0"
         result="offset"
         id="feOffset1305" />
      <feComposite
         in="offset"
         in2="SourceGraphic"
         operator="atop"
         result="composite2"
         id="feComposite1307" />
    </filter>
    <filter
       style="color-interpolation-filters:sRGB"
       inkscape:label="Drop Shadow"
       id="filter1321">
      <feFlood
         flood-opacity="0.498039"
         flood-color="rgb(0,0,0)"
         result="flood"
         id="feFlood1311" />
      <feComposite
         in="flood"
         in2="SourceGraphic"
         operator="out"
         result="composite1"
         id="feComposite1313" />
      <feGaussianBlur
         in="composite1"
         stdDeviation="10"
         result="blur"
         id="feGaussianBlur1315" />
      <feOffset
         dx="0"
         dy="0"
         result="offset"
         id="feOffset1317" />
      <feComposite
         in="offset"
         in2="SourceGraphic"
         operator="atop"
         result="composite2"
         id="feComposite1319" />
    </filter>
  </defs>
  <metadata
     id="metadata5">
    <rdf:RDF>
      <cc:Work
         rdf:about="">
        <dc:format>image/svg+xml</dc:format>
        <dc:type
           rdf:resource="http://purl.org/dc/dcmitype/StillImage" />
        <dc:title />
      </cc:Work>
    </rdf:RDF>
  </metadata>
  <g
     inkscape:groupmode="layer"
     id="layer10"
     inkscape:label="nomoneyshop"
     style="display:inline"
     transform="translate(0.9283579,-573.86945)">
    <g
       aria-label="nomoney.shop"
       style="font-style:normal;font-weight:normal;font-size:77.21009064px;line-height:1.25;font-family:sans-serif;letter-spacing:0px;word-spacing:0px;display:inline;fill:#000000;fill-opacity:1;stroke:#666666;stroke-width:1.32291663;stroke-miterlimit:4;stroke-dasharray:none"
       id="text2541-8"
       transform="matrix(0.99682035,0,0,0.99682035,-0.66145809,1.8247052)">
      <path
         d="m 20.581661,574.53091 q 7.412169,0 11.195464,3.62888 3.783294,3.55166 3.783294,11.58151 v 26.94632 h -6.717278 v -26.48306 q 0,-9.9601 -9.265211,-9.9601 -6.871698,0 -9.496841,3.8605 -2.6251429,3.86051 -2.6251429,11.11826 v 21.4644 H 0.66145809 V 575.30301 H 6.1433745 l 1.0037312,5.63634 h 0.3860505 q 2.0074623,-3.24282 5.5591268,-4.78703 3.551664,-1.62141 7.489378,-1.62141 z"
         style="font-style:normal;font-variant:normal;font-weight:normal;font-stretch:normal;font-family:'Noto Sans';-inkscape-font-specification:'Noto Sans';fill:#000000;stroke:#666666;stroke-width:1.32291663;stroke-miterlimit:4;stroke-dasharray:none"
         id="path917"
         inkscape:connector-curvature="0" />
      <path
         d="m 84.294463,595.91811 q 0,10.26894 -5.250286,15.90528 -5.173076,5.63633 -14.052236,5.63633 -5.481917,0 -9.805682,-2.47072 -4.246555,-2.54793 -6.717278,-7.33496 -2.470723,-4.86423 -2.470723,-11.73593 0,-10.26894 5.173076,-15.82807 5.173076,-5.55913 14.052237,-5.55913 5.636336,0 9.882891,2.54794 4.323765,2.47072 6.717278,7.25774 2.470723,4.70982 2.470723,11.58152 z m -31.270087,0 q 0,7.33496 2.856774,11.65872 2.933983,4.24656 9.265211,4.24656 6.254017,0 9.188001,-4.24656 2.933983,-4.32376 2.933983,-11.65872 0,-7.33496 -2.933983,-11.50431 -2.933984,-4.16934 -9.265211,-4.16934 -6.331228,0 -9.188001,4.16934 -2.856774,4.16935 -2.856774,11.50431 z"
         style="font-style:normal;font-variant:normal;font-weight:normal;font-stretch:normal;font-family:'Noto Sans';-inkscape-font-specification:'Noto Sans';fill:#000000;stroke:#666666;stroke-width:1.32291663;stroke-miterlimit:4;stroke-dasharray:none"
         id="path919"
         inkscape:connector-curvature="0" />
      <path
         d="m 140.46239,574.53091 q 7.02612,0 10.50057,3.62888 3.47446,3.55166 3.47446,11.58151 v 26.94632 h -6.71728 v -26.63748 q 0,-9.80568 -8.4159,-9.80568 -6.02239,0 -8.64753,3.47445 -2.54794,3.47446 -2.54794,10.11453 v 22.85418 h -6.71727 v -26.63748 q 0,-9.80568 -8.49311,-9.80568 -6.25402,0 -8.64753,3.8605 -2.39352,3.86051 -2.39352,11.11826 v 21.4644 h -6.794484 v -41.38461 h 5.481914 l 1.00373,5.63634 h 0.38605 q 1.93026,-3.24282 5.17308,-4.78703 3.32003,-1.62141 7.02612,-1.62141 9.72847,0 12.66245,6.94891 h 0.38605 q 2.08468,-3.55166 5.63634,-5.25029 3.62887,-1.69862 7.6438,-1.69862 z"
         style="font-style:normal;font-variant:normal;font-weight:normal;font-stretch:normal;font-family:'Noto Sans';-inkscape-font-specification:'Noto Sans';fill:#000000;stroke:#666666;stroke-width:1.32291663;stroke-miterlimit:4;stroke-dasharray:none"
         id="path921"
         inkscape:connector-curvature="0" />
      <path
         d="m 203.27642,595.91811 q 0,10.26894 -5.25029,15.90528 -5.17308,5.63633 -14.05224,5.63633 -5.48191,0 -9.80568,-2.47072 -4.24655,-2.54793 -6.71728,-7.33496 -2.47072,-4.86423 -2.47072,-11.73593 0,-10.26894 5.17308,-15.82807 5.17307,-5.55913 14.05223,-5.55913 5.63634,0 9.8829,2.54794 4.32376,2.47072 6.71727,7.25774 2.47073,4.70982 2.47073,11.58152 z m -31.27009,0 q 0,7.33496 2.85677,11.65872 2.93399,4.24656 9.26521,4.24656 6.25402,0 9.188,-4.24656 2.93399,-4.32376 2.93399,-11.65872 0,-7.33496 -2.93399,-11.50431 -2.93398,-4.16934 -9.26521,-4.16934 -6.33122,0 -9.188,4.16934 -2.85677,4.16935 -2.85677,11.50431 z"
         style="font-style:normal;font-variant:normal;font-weight:normal;font-stretch:normal;font-family:'Noto Sans';-inkscape-font-specification:'Noto Sans';fill:#000000;stroke:#666666;stroke-width:1.32291663;stroke-miterlimit:4;stroke-dasharray:none"
         id="path923"
         inkscape:connector-curvature="0" />
      <path
         d="m 233.96502,574.53091 q 7.41217,0 11.19547,3.62888 3.78329,3.55166 3.78329,11.58151 v 26.94632 h -6.71728 v -26.48306 q 0,-9.9601 -9.26521,-9.9601 -6.8717,0 -9.49684,3.8605 -2.62514,3.86051 -2.62514,11.11826 v 21.4644 h -6.79449 v -41.38461 h 5.48192 l 1.00373,5.63634 h 0.38605 q 2.00746,-3.24282 5.55912,-4.78703 3.55167,-1.62141 7.48938,-1.62141 z"
         style="font-style:normal;font-variant:normal;font-weight:normal;font-stretch:normal;font-family:'Noto Sans';-inkscape-font-specification:'Noto Sans';fill:#000000;stroke:#666666;stroke-width:1.32291663;stroke-miterlimit:4;stroke-dasharray:none"
         id="path925"
         inkscape:connector-curvature="0" />
      <path
         d="m 277.68042,574.53091 q 5.32749,0 9.11079,2.31631 3.8605,2.3163 5.86796,6.56285 2.08468,4.16935 2.08468,9.80568 v 4.09214 h -28.33611 q 0.15442,7.02612 3.55167,10.7322 3.47445,3.62888 9.65126,3.62888 3.93771,0 6.94891,-0.69489 3.0884,-0.77211 6.33122,-2.16189 v 5.94518 q -3.16561,1.38978 -6.25401,2.00746 -3.08841,0.69489 -7.33496,0.69489 -5.86797,0 -10.42336,-2.39351 -4.47819,-2.39351 -7.02612,-7.10333 -2.47073,-4.78702 -2.47073,-11.65872 0,-6.79449 2.2391,-11.65873 2.3163,-4.86423 6.40843,-7.48937 4.16935,-2.62515 9.65127,-2.62515 z m -0.0772,5.55913 q -4.86424,0 -7.72101,3.16561 -2.77957,3.08841 -3.32004,8.64753 h 21.07836 q -0.0772,-5.25028 -2.47073,-8.49311 -2.39351,-3.32003 -7.56658,-3.32003 z"
         style="font-style:normal;font-variant:normal;font-weight:normal;font-stretch:normal;font-family:'Noto Sans';-inkscape-font-specification:'Noto Sans';fill:#000000;stroke:#666666;stroke-width:1.32291663;stroke-miterlimit:4;stroke-dasharray:none"
         id="path927"
         inkscape:connector-curvature="0" />
      <path
         d="m 297.28573,575.30301 h 7.25775 l 8.95637,23.54908 c 0.77211,2.05893 1.467,4.04066 2.08468,5.94518 0.61768,1.85304 1.08094,3.62887 1.38978,5.32749 h 0.30884 c 0.30884,-1.28683 0.79784,-2.95972 1.46699,-5.01865 0.66915,-2.11041 1.36404,-4.22082 2.08467,-6.33123 l 8.4159,-23.47187 h 7.33496 l -17.83553,47.09816 c -1.44125,3.91198 -3.32003,7.02612 -5.63634,9.34242 -2.26483,2.3163 -5.4047,3.47445 -9.41963,3.47445 -1.23536,0 -303.02624214,-0.23163 -303.02624214,-0.23163 v -5.48191 c 0,0 301.07025214,0.15442 301.94530214,0.15442 2.36778,0 4.2723,-0.66916 5.71355,-2.00747 1.49273,-1.33831 2.65088,-3.11414 3.47445,-5.32749 l 2.16188,-5.48192 z"
         style="font-style:normal;font-variant:normal;font-weight:normal;font-stretch:normal;font-family:'Noto Sans';-inkscape-font-specification:'Noto Sans';fill:#000000;stroke:#666666;stroke-width:1.32291663;stroke-miterlimit:4;stroke-dasharray:none"
         id="path929"
         inkscape:connector-curvature="0"
         sodipodi:nodetypes="ccccccccccccsccscccc" />
      <path
         d="m 342.12672,630.13828 q 0,-2.85678 1.38978,-4.01493 1.38978,-1.15815 3.32004,-1.15815 2.00746,0 3.39724,1.15815 1.46699,1.15815 1.46699,4.01493 0,2.77956 -1.46699,4.01492 -1.38978,1.23536 -3.39724,1.23536 -1.93026,0 -3.32004,-1.23536 -1.38978,-1.23536 -1.38978,-4.01492 z"
         style="font-style:normal;font-variant:normal;font-weight:normal;font-stretch:normal;font-family:'Noto Sans';-inkscape-font-specification:'Noto Sans';fill:#000000;stroke:#666666;stroke-width:1.32291663;stroke-miterlimit:4;stroke-dasharray:none"
         id="path931"
         inkscape:connector-curvature="0" />
      <path
         d="m 390.7365,622.88053 q 0,6.02239 -4.47818,9.11079 -4.47819,3.0884 -12.04478,3.0884 -4.32376,0 -7.48938,-0.69489 -3.0884,-0.69489 -5.48191,-1.93025 v -6.17681 q 2.47072,1.23536 5.94518,2.31631 3.55166,1.00373 7.18053,1.00373 5.17308,0 7.48938,-1.62141 2.31631,-1.69863 2.31631,-4.47819 0,-1.5442 -0.84932,-2.77956 -0.84931,-1.23536 -3.0884,-2.47073 -2.16188,-1.23536 -6.25402,-2.77956 -4.01492,-1.5442 -6.87169,-3.0884 -2.85678,-1.5442 -4.40098,-3.70609 -1.5442,-2.16188 -1.5442,-5.55912 0,-5.25029 4.24655,-8.10706 4.32377,-2.85678 11.27268,-2.85678 3.78329,0 7.02611,0.7721 3.32004,0.6949 6.17681,2.00747 l -2.3163,5.4047 q -2.62514,-1.08094 -5.48192,-1.85304 -2.85677,-0.7721 -5.86796,-0.7721 -4.16935,0 -6.40844,1.38978 -2.16188,1.31257 -2.16188,3.62888 0,1.69862 1.00373,2.93398 1.00373,1.15815 3.32003,2.3163 2.39351,1.08094 6.33123,2.62515 3.93771,1.46699 6.71728,3.01119 2.77956,1.5442 4.24655,3.78329 1.46699,2.16189 1.46699,5.48192 z"
         style="font-style:normal;font-variant:normal;font-weight:normal;font-stretch:normal;font-family:'Noto Sans';-inkscape-font-specification:'Noto Sans';fill:#000000;stroke:#666666;stroke-width:1.32291663;stroke-miterlimit:4;stroke-dasharray:none"
         id="path933"
         inkscape:connector-curvature="0" />
      <path
         d="m 407.5309,575.62795 v 17.21785 q 0,3.08841 -0.38605,5.79076 h 0.46326 q 2.00746,-3.16561 5.4047,-4.78702 3.47446,-1.62142 7.48938,-1.62142 7.56659,0 11.34989,3.62888 3.78329,3.55166 3.78329,11.5043 v 26.94632 h -6.71728 v -26.48306 q 0,-9.9601 -9.26521,-9.9601 -6.94891,0 -9.57405,3.93771 -2.54793,3.86051 -2.54793,11.11826 v 21.38719 h -6.79449 v -58.67967 z"
         style="font-style:normal;font-variant:normal;font-weight:normal;font-stretch:normal;font-family:'Noto Sans';-inkscape-font-specification:'Noto Sans';fill:#000000;stroke:#666666;stroke-width:1.32291663;stroke-miterlimit:4;stroke-dasharray:none"
         id="path935"
         inkscape:connector-curvature="0" />
      <path
         d="m 484.36942,613.53811 q 0,10.26894 -5.25029,15.90528 -5.17307,5.63633 -14.05223,5.63633 -5.48192,0 -9.80569,-2.47072 -4.24655,-2.54793 -6.71727,-7.33496 -2.47073,-4.86423 -2.47073,-11.73593 0,-10.26894 5.17308,-15.82807 5.17308,-5.55913 14.05224,-5.55913 5.63633,0 9.88289,2.54794 4.32376,2.47072 6.71728,7.25774 2.47072,4.70982 2.47072,11.58152 z m -31.27009,0 q 0,7.33496 2.85677,11.65872 2.93399,4.24656 9.26522,4.24656 6.25401,0 9.188,-4.24656 2.93398,-4.32376 2.93398,-11.65872 0,-7.33496 -2.93398,-11.5043 -2.93399,-4.16935 -9.26521,-4.16935 -6.33123,0 -9.18801,4.16935 -2.85677,4.16934 -2.85677,11.5043 z"
         style="font-style:normal;font-variant:normal;font-weight:normal;font-stretch:normal;font-family:'Noto Sans';-inkscape-font-specification:'Noto Sans';fill:#000000;stroke:#666666;stroke-width:1.32291663;stroke-miterlimit:4;stroke-dasharray:none"
         id="path937"
         inkscape:connector-curvature="0" />
      <path
         d="m 514.82638,592.15091 c 5.09587,0 9.188,1.77583 12.2764,5.3275 3.13988,3.55167 4.70982,8.9049 4.70982,16.0597 0,7.05185 -1.56994,12.40509 -4.70982,16.0597 -3.0884,3.65461 -7.20627,5.48191 -12.35361,5.48191 -3.19135,0 -5.84223,-0.59194 -7.95264,-1.77583 -2.05893,-1.23536 -3.68035,-2.65088 -4.86424,-4.24655 h -0.46326 c 0.10295,0.87505 0.20589,1.98172 0.30884,3.32003 0.10295,1.33831 0.15442,2.49646 0.15442,3.47445 v 45.98793 h -6.79448 v -88.91674 h 5.55912 l 0.92652,5.63634 h 0.30884 c 1.23537,-1.80157 2.85678,-3.32003 4.86424,-4.55539 2.00746,-1.23537 4.68408,-1.85305 8.02985,-1.85305 z m -1.23536,5.71355 c -4.22082,0 -7.20628,1.18389 -8.95637,3.55166 -1.69862,2.36778 -2.59941,5.97092 -2.70236,10.80942 v 1.31257 c 0,5.09587 0.82358,9.03358 2.47073,11.81314 1.69862,2.72809 4.81276,4.09214 9.34242,4.09214 2.52219,0 4.58113,-0.69489 6.17681,-2.08468 1.64715,-1.38978 2.85677,-3.26856 3.62887,-5.63633 0.82357,-2.41925 1.23536,-5.17308 1.23536,-8.26148 0,-4.73555 -0.92652,-8.51885 -2.77956,-11.34988 -1.80157,-2.83104 -4.60687,-4.24656 -8.4159,-4.24656 z"
         style="font-style:normal;font-variant:normal;font-weight:normal;font-stretch:normal;font-family:'Noto Sans';-inkscape-font-specification:'Noto Sans';fill:#000000;stroke:#666666;stroke-width:1.32291663;stroke-miterlimit:4;stroke-dasharray:none"
         id="path939"
         inkscape:connector-curvature="0"
         sodipodi:nodetypes="scscscccsscccccccssccscsccscs" />
    </g>
  </g>
  <g
     transform="translate(0.9283579,-573.86945)"
     style="display:none"
     inkscape:label="nomoneyshop Kopie"
     id="g915"
     inkscape:groupmode="layer">
    <text
       id="text913"
       y="616.68762"
       x="-5.9013996"
       style="font-style:normal;font-weight:normal;font-size:77.21009064px;line-height:1.25;font-family:sans-serif;letter-spacing:0px;word-spacing:0px;display:inline;fill:#000000;fill-opacity:1;stroke:#666666;stroke-width:1.32291663;stroke-miterlimit:4;stroke-dasharray:none"
       xml:space="preserve"><tspan
         dy="0 0 0 0 0 0 0 17.620001 -4.5776366e-07"
         style="font-style:normal;font-variant:normal;font-weight:normal;font-stretch:normal;font-family:'Noto Sans';-inkscape-font-specification:'Noto Sans';fill:#000000;stroke:#666666;stroke-width:1.32291663;stroke-miterlimit:4;stroke-dasharray:none"
         y="616.68762"
         x="-5.9013996"
         id="tspan911">nomoney.shop</tspan></text>
  </g>
  <g
     inkscape:groupmode="layer"
     id="layer11"
     inkscape:label="slogan"
     style="display:inline"
     transform="translate(0.9283579,-573.86945)">
    <g
       aria-label="Äpfel mit Birnen vergleichen"
       style="font-style:normal;font-weight:normal;font-size:34.16315079px;line-height:1.25;font-family:sans-serif;letter-spacing:0px;word-spacing:0px;fill:#666666;fill-opacity:1;stroke:none;stroke-width:0.85407871"
       id="text996">
      <path
         d="m 17.690559,682.08801 -2.938031,-7.55005 H 5.0843566 l -2.9038678,7.55005 h -3.1088467 l 9.5315191,-24.49498 h 2.7672148 l 9.497356,24.49498 z m -3.860436,-10.28311 -2.733052,-7.37924 q -0.102489,-0.2733 -0.341631,-0.99073 -0.239142,-0.71742 -0.478284,-1.46901 -0.204979,-0.78576 -0.3416319,-1.19571 -0.2391421,1.05905 -0.5466105,2.08395 -0.3074683,0.99073 -0.5124472,1.5715 L 6.1092512,671.8049 Z M 5.1185198,652.74187 q 0,-0.88825 0.4782841,-1.26404 0.4782841,-0.40996 1.127384,-0.40996 0.6490998,0 1.127384,0.40996 0.4782841,0.37579 0.4782841,1.26404 0,0.85407 -0.4782841,1.2982 -0.4782842,0.40995 -1.127384,0.40995 -0.6490999,0 -1.127384,-0.40995 -0.4782841,-0.44413 -0.4782841,-1.2982 z m 6.4226722,0 q 0,-0.88825 0.444121,-1.26404 0.478284,-0.40996 1.127384,-0.40996 0.6491,0 1.127384,0.40996 0.478284,0.37579 0.478284,1.26404 0,0.85407 -0.478284,1.2982 -0.478284,0.40995 -1.127384,0.40995 -0.6491,0 -1.127384,-0.40995 -0.444121,-0.44413 -0.444121,-1.2982 z"
         style="font-style:normal;font-variant:normal;font-weight:normal;font-stretch:normal;font-family:'Noto Sans';-inkscape-font-specification:'Noto Sans';word-spacing:10.44310379px;fill:#666666;stroke:none;stroke-width:0.85407871"
         id="path889" />
      <path
         d="m 32.506157,663.43493 q 3.382152,0 5.431941,2.35726 2.083953,2.35726 2.083953,7.10594 0,4.68035 -2.083953,7.10593 -2.049789,2.42558 -5.466104,2.42558 -2.118115,0 -3.518804,-0.78575 -1.366526,-0.81991 -2.152279,-1.87897 h -0.204979 q 0.06833,0.58077 0.136653,1.46901 0.06833,0.88825 0.06833,1.53735 v 7.51589 h -3.006357 v -26.51061 h 2.459747 l 0.409958,2.49391 h 0.136652 q 0.819916,-1.19571 2.152279,-2.01562 1.332363,-0.81992 3.552967,-0.81992 z m -0.54661,2.52808 q -2.801378,0 -3.962925,1.5715 -1.127384,1.57151 -1.195711,4.78284 v 0.58078 q 0,3.38215 1.093221,5.22696 1.127384,1.81064 4.133741,1.81064 1.673995,0 2.733052,-0.9224 1.093221,-0.92241 1.605669,-2.49391 0.54661,-1.60567 0.54661,-3.65546 0,-3.14301 -1.229873,-5.02198 -1.195711,-1.87897 -3.723784,-1.87897 z"
         style="font-style:normal;font-variant:normal;font-weight:normal;font-stretch:normal;font-family:'Noto Sans';-inkscape-font-specification:'Noto Sans';word-spacing:10.44310379px;fill:#666666;stroke:none;stroke-width:0.85407871"
         id="path891" />
      <path
         d="M 53.251195,666.09966 H 48.63917 v 15.98835 h -3.006357 v -15.98835 h -3.211337 v -1.40069 l 3.211337,-1.0249 v -1.05905 q 0,-3.55297 1.571505,-5.09031 1.571504,-1.57151 4.372883,-1.57151 1.093221,0 1.981463,0.20498 0.922405,0.17082 1.571505,0.40996 l -0.785753,2.35726 q -0.54661,-0.17082 -1.264037,-0.34164 -0.717426,-0.17081 -1.469015,-0.17081 -1.503179,0 -2.254768,1.02489 -0.717426,0.99074 -0.717426,3.14301 v 1.19571 h 4.612025 z"
         style="font-style:normal;font-variant:normal;font-weight:normal;font-stretch:normal;font-family:'Noto Sans';-inkscape-font-specification:'Noto Sans';word-spacing:10.44310379px;fill:#666666;stroke:none;stroke-width:0.85407871"
         id="path893" />
      <path
         d="m 63.628253,663.43493 q 2.357257,0 4.031252,1.0249 1.708157,1.02489 2.596399,2.90386 0.922405,1.84481 0.922405,4.33872 v 1.81065 H 58.640433 q 0.06833,3.10885 1.571505,4.74868 1.537342,1.60567 4.270394,1.60567 1.74232,0 3.074683,-0.30747 1.366526,-0.34163 2.801379,-0.95657 v 2.63056 q -1.40069,0.61494 -2.767216,0.88825 -1.366526,0.30746 -3.245499,0.30746 -2.596399,0 -4.612025,-1.05905 -1.981463,-1.05906 -3.108847,-3.14301 -1.093221,-2.11812 -1.093221,-5.15864 0,-3.00636 0.990732,-5.15863 1.024894,-2.15228 2.835541,-3.31383 1.84481,-1.16155 4.270394,-1.16155 z m -0.03416,2.45975 q -2.152279,0 -3.416315,1.40069 -1.229874,1.36652 -1.469016,3.82627 h 9.32654 q -0.03416,-2.32309 -1.09322,-3.75795 -1.059058,-1.46901 -3.347989,-1.46901 z"
         style="font-style:normal;font-variant:normal;font-weight:normal;font-stretch:normal;font-family:'Noto Sans';-inkscape-font-specification:'Noto Sans';word-spacing:10.44310379px;fill:#666666;stroke:none;stroke-width:0.85407871"
         id="path895" />
      <path
         d="m 78.846339,682.08801 h -3.006358 v -25.96399 h 3.006358 z"
         style="font-style:normal;font-variant:normal;font-weight:normal;font-stretch:normal;font-family:'Noto Sans';-inkscape-font-specification:'Noto Sans';word-spacing:10.44310379px;fill:#666666;stroke:none;stroke-width:0.85407871"
         id="path897" />
      <path
         d="m 124.05311,663.43493 q 3.10885,0 4.64619,1.60567 1.53734,1.57151 1.53734,5.12447 v 11.92294 h -2.97219 v -11.78628 q 0,-4.33872 -3.72378,-4.33872 -2.66473,0 -3.82628,1.53734 -1.12738,1.53734 -1.12738,4.47537 v 10.11229 h -2.9722 v -11.78628 q 0,-4.33872 -3.75794,-4.33872 -2.76722,0 -3.82628,1.70815 -1.05905,1.70816 -1.05905,4.9195 v 9.49735 h -3.00636 v -18.31145 h 2.42558 l 0.44412,2.49391 h 0.17082 q 0.85408,-1.43485 2.28893,-2.11811 1.46902,-0.71743 3.10885,-0.71743 4.30455,0 5.60275,3.07469 h 0.17082 q 0.92241,-1.57151 2.49391,-2.3231 1.60567,-0.75159 3.38215,-0.75159 z"
         style="font-style:normal;font-variant:normal;font-weight:normal;font-stretch:normal;font-family:'Noto Sans';-inkscape-font-specification:'Noto Sans';word-spacing:10.44310379px;fill:#666666;stroke:none;stroke-width:0.85407871"
         id="path899" />
      <path
         d="m 137.46375,656.90977 q 0.68326,0 1.19571,0.47828 0.54661,0.44413 0.54661,1.43486 0,0.95657 -0.54661,1.43485 -0.51245,0.47828 -1.19571,0.47828 -0.75159,0 -1.26404,-0.47828 -0.51244,-0.47828 -0.51244,-1.43485 0,-0.99073 0.51244,-1.43486 0.51245,-0.47828 1.26404,-0.47828 z m 1.46901,6.86679 v 18.31145 h -3.00635 v -18.31145 z"
         style="font-style:normal;font-variant:normal;font-weight:normal;font-stretch:normal;font-family:'Noto Sans';-inkscape-font-specification:'Noto Sans';word-spacing:10.44310379px;fill:#666666;stroke:none;stroke-width:0.85407871"
         id="path901" />
      <path
         d="m 150.8493,679.9699 q 0.68327,0 1.40069,-0.10249 0.71743,-0.13665 1.16155,-0.27331 v 2.28893 q -0.47828,0.23915 -1.36653,0.3758 -0.88824,0.17081 -1.70815,0.17081 -1.43485,0 -2.66473,-0.47828 -1.19571,-0.51245 -1.9473,-1.74232 -0.75159,-1.22987 -0.75159,-3.45048 v -10.6589 h -2.5964 v -1.43485 l 2.63057,-1.19571 1.19571,-3.8946 h 1.77648 v 4.20206 h 5.29529 v 2.3231 h -5.29529 v 10.59057 q 0,1.674 0.78575,2.49391 0.81992,0.78576 2.08395,0.78576 z"
         style="font-style:normal;font-variant:normal;font-weight:normal;font-stretch:normal;font-family:'Noto Sans';-inkscape-font-specification:'Noto Sans';word-spacing:10.44310379px;fill:#666666;stroke:none;stroke-width:0.85407871"
         id="path903" />
      <path
         d="m 176.80568,657.69552 h 6.96928 q 4.57786,0 6.90096,1.36653 2.35726,1.33236 2.35726,4.68035 0,2.15228 -1.19571,3.58713 -1.19571,1.40069 -3.45048,1.81065 v 0.17081 q 1.53734,0.23915 2.76721,0.88825 1.26404,0.6491 1.98147,1.84481 0.71742,1.19571 0.71742,3.10884 0,3.31383 -2.28893,5.12448 -2.25477,1.81064 -6.18353,1.81064 h -8.57495 z m 3.07468,10.3856 h 4.50954 q 3.14301,0 4.30456,-0.99073 1.16154,-1.0249 1.16154,-3.00636 0,-2.01562 -1.43485,-2.8697 -1.40069,-0.88824 -4.50954,-0.88824 h -4.03125 z m 0,2.56224 v 8.84825 h 4.9195 q 3.2455,0 4.50953,-1.26403 1.26404,-1.26404 1.26404,-3.31383 0,-1.91314 -1.33236,-3.07468 -1.2982,-1.19571 -4.68036,-1.19571 z"
         style="font-style:normal;font-variant:normal;font-weight:normal;font-stretch:normal;font-family:'Noto Sans';-inkscape-font-specification:'Noto Sans';word-spacing:10.44310379px;fill:#666666;stroke:none;stroke-width:0.85407871"
         id="path905" />
      <path
         d="m 200.15245,656.90977 q 0.68327,0 1.19571,0.47828 0.54662,0.44413 0.54662,1.43486 0,0.95657 -0.54662,1.43485 -0.51244,0.47828 -1.19571,0.47828 -0.75158,0 -1.26403,-0.47828 -0.51245,-0.47828 -0.51245,-1.43485 0,-0.99073 0.51245,-1.43486 0.51245,-0.47828 1.26403,-0.47828 z m 1.46902,6.86679 v 18.31145 h -3.00636 v -18.31145 z"
         style="font-style:normal;font-variant:normal;font-weight:normal;font-stretch:normal;font-family:'Noto Sans';-inkscape-font-specification:'Noto Sans';word-spacing:10.44310379px;fill:#666666;stroke:none;stroke-width:0.85407871"
         id="path907" />
      <path
         d="m 215.96359,663.43493 q 0.51245,0 1.09322,0.0683 0.61494,0.0342 1.05906,0.13665 l -0.37579,2.76722 q -0.44412,-0.10249 -0.99073,-0.17082 -0.51245,-0.0683 -0.99074,-0.0683 -1.40068,0 -2.63056,0.78576 -1.22987,0.75159 -1.98146,2.15228 -0.71743,1.36652 -0.71743,3.21133 v 9.77066 h -3.00635 v -18.31145 h 2.45974 l 0.34163,3.34799 h 0.13666 q 0.88824,-1.50318 2.28893,-2.5964 1.40069,-1.09322 3.31382,-1.09322 z"
         style="font-style:normal;font-variant:normal;font-weight:normal;font-stretch:normal;font-family:'Noto Sans';-inkscape-font-specification:'Noto Sans';word-spacing:10.44310379px;fill:#666666;stroke:none;stroke-width:0.85407871"
         id="path909" />
      <path
         d="m 230.31585,663.43493 q 3.27966,0 4.95365,1.60567 1.674,1.57151 1.674,5.12447 v 11.92294 h -2.97219 v -11.71796 q 0,-4.40704 -4.09958,-4.40704 -3.04052,0 -4.20207,1.70815 -1.16155,1.70816 -1.16155,4.9195 v 9.49735 h -3.00635 v -18.31145 h 2.42558 l 0.44412,2.49391 h 0.17082 q 0.88824,-1.43485 2.45974,-2.11811 1.57151,-0.71743 3.31383,-0.71743 z"
         style="font-style:normal;font-variant:normal;font-weight:normal;font-stretch:normal;font-family:'Noto Sans';-inkscape-font-specification:'Noto Sans';word-spacing:10.44310379px;fill:#666666;stroke:none;stroke-width:0.85407871"
         id="path911" />
      <path
         d="m 249.65859,663.43493 q 2.35726,0 4.03126,1.0249 1.70815,1.02489 2.5964,2.90386 0.9224,1.84481 0.9224,4.33872 v 1.81065 h -12.53788 q 0.0683,3.10885 1.57151,4.74868 1.53734,1.60567 4.27039,1.60567 1.74232,0 3.07469,-0.30747 1.36652,-0.34163 2.80138,-0.95657 v 2.63056 q -1.40069,0.61494 -2.76722,0.88825 -1.36653,0.30746 -3.2455,0.30746 -2.5964,0 -4.61202,-1.05905 -1.98147,-1.05906 -3.10885,-3.14301 -1.09322,-2.11812 -1.09322,-5.15864 0,-3.00636 0.99073,-5.15863 1.02489,-2.15228 2.83554,-3.31383 1.84481,-1.16155 4.27039,-1.16155 z m -0.0342,2.45975 q -2.15228,0 -3.41631,1.40069 -1.22988,1.36652 -1.46902,3.82627 h 9.32654 q -0.0342,-2.32309 -1.09322,-3.75795 -1.05906,-1.46901 -3.34799,-1.46901 z"
         style="font-style:normal;font-variant:normal;font-weight:normal;font-stretch:normal;font-family:'Noto Sans';-inkscape-font-specification:'Noto Sans';word-spacing:10.44310379px;fill:#666666;stroke:none;stroke-width:0.85407871"
         id="path913" />
      <path
         d="m 270.68441,663.43493 q 3.27966,0 4.95366,1.60567 1.67399,1.57151 1.67399,5.12447 v 11.92294 h -2.97219 v -11.71796 q 0,-4.40704 -4.09958,-4.40704 -3.04052,0 -4.20207,1.70815 -1.16155,1.70816 -1.16155,4.9195 v 9.49735 h -3.00635 v -18.31145 h 2.42558 l 0.44412,2.49391 h 0.17082 q 0.88824,-1.43485 2.45974,-2.11811 1.57151,-0.71743 3.31383,-0.71743 z"
         style="font-style:normal;font-variant:normal;font-weight:normal;font-stretch:normal;font-family:'Noto Sans';-inkscape-font-specification:'Noto Sans';word-spacing:10.44310379px;fill:#666666;stroke:none;stroke-width:0.85407871"
         id="path915" />
      <path
         d="m 306.30416,682.08801 -6.93512,-18.31145 h 3.21133 l 3.8946,10.79556 q 0.27331,0.75159 0.58077,1.67399 0.30747,0.92241 0.54662,1.77649 0.23914,0.81991 0.34163,1.40069 h 0.13665 q 0.13665,-0.58078 0.37579,-1.43486 0.27331,-0.85407 0.58078,-1.77648 0.34163,-0.9224 0.58077,-1.63983 l 3.8946,-10.79556 h 3.21134 l -6.96929,18.31145 z"
         style="font-style:normal;font-variant:normal;font-weight:normal;font-stretch:normal;font-family:'Noto Sans';-inkscape-font-specification:'Noto Sans';word-spacing:10.44310379px;fill:#666666;stroke:none;stroke-width:0.85407871"
         id="path918" />
      <path
         d="m 326.69316,663.43493 q 2.35725,0 4.03125,1.0249 1.70816,1.02489 2.5964,2.90386 0.9224,1.84481 0.9224,4.33872 v 1.81065 h -12.53787 q 0.0683,3.10885 1.5715,4.74868 1.53734,1.60567 4.27039,1.60567 1.74233,0 3.07469,-0.30747 1.36652,-0.34163 2.80138,-0.95657 v 2.63056 q -1.40069,0.61494 -2.76722,0.88825 -1.36652,0.30746 -3.2455,0.30746 -2.5964,0 -4.61202,-1.05905 -1.98147,-1.05906 -3.10885,-3.14301 -1.09322,-2.11812 -1.09322,-5.15864 0,-3.00636 0.99073,-5.15863 1.0249,-2.15228 2.83554,-3.31383 1.84481,-1.16155 4.2704,-1.16155 z m -0.0342,2.45975 q -2.15228,0 -3.41631,1.40069 -1.22988,1.36652 -1.46902,3.82627 h 9.32654 q -0.0342,-2.32309 -1.09322,-3.75795 -1.05906,-1.46901 -3.34799,-1.46901 z"
         style="font-style:normal;font-variant:normal;font-weight:normal;font-stretch:normal;font-family:'Noto Sans';-inkscape-font-specification:'Noto Sans';word-spacing:10.44310379px;fill:#666666;stroke:none;stroke-width:0.85407871"
         id="path920" />
      <path
         d="m 347.44568,663.43493 q 0.51245,0 1.09322,0.0683 0.61494,0.0342 1.05906,0.13665 l -0.3758,2.76722 q -0.44412,-0.10249 -0.99073,-0.17082 -0.51244,-0.0683 -0.99073,-0.0683 -1.40069,0 -2.63056,0.78576 -1.22988,0.75159 -1.98146,2.15228 -0.71743,1.36652 -0.71743,3.21133 v 9.77066 h -3.00636 v -18.31145 h 2.45975 l 0.34163,3.34799 h 0.13665 q 0.88825,-1.50318 2.28893,-2.5964 1.40069,-1.09322 3.31383,-1.09322 z"
         style="font-style:normal;font-variant:normal;font-weight:normal;font-stretch:normal;font-family:'Noto Sans';-inkscape-font-specification:'Noto Sans';word-spacing:10.44310379px;fill:#666666;stroke:none;stroke-width:0.85407871"
         id="path922" />
      <path
         d="m 359.14122,663.43493 q 1.81065,0 3.2455,0.68327 1.46902,0.68326 2.49391,2.08395 h 0.17082 l 0.40995,-2.42559 h 2.39143 v 18.61892 q 0,3.92876 -2.01563,5.91023 -1.98146,1.98146 -6.18353,1.98146 -4.03125,0 -6.59349,-1.16155 v -2.76721 q 2.69889,1.43485 6.7643,1.43485 2.35726,0 3.68963,-1.40069 1.36652,-1.36653 1.36652,-3.75795 v -0.71742 q 0,-0.40996 0.0342,-1.16155 0.0342,-0.78575 0.0683,-1.09322 h -0.13665 q -1.84481,2.76721 -5.67109,2.76721 -3.55296,0 -5.56859,-2.49391 -1.98146,-2.49391 -1.98146,-6.96928 0,-4.37288 1.98146,-6.93512 2.01563,-2.5964 5.53443,-2.5964 z m 0.40996,2.52808 q -2.28893,0 -3.55297,1.84481 -1.26403,1.81064 -1.26403,5.19279 0,3.38216 1.22987,5.1928 1.26404,1.77649 3.65546,1.77649 2.76721,0 4.03125,-1.46902 1.26403,-1.50318 1.26403,-4.817 v -0.71743 q 0,-3.75795 -1.2982,-5.36361 -1.2982,-1.63983 -4.06541,-1.63983 z"
         style="font-style:normal;font-variant:normal;font-weight:normal;font-stretch:normal;font-family:'Noto Sans';-inkscape-font-specification:'Noto Sans';word-spacing:10.44310379px;fill:#666666;stroke:none;stroke-width:0.85407871"
         id="path924" />
      <path
         d="m 376.67492,682.08801 h -3.00636 v -25.96399 h 3.00636 z"
         style="font-style:normal;font-variant:normal;font-weight:normal;font-stretch:normal;font-family:'Noto Sans';-inkscape-font-specification:'Noto Sans';word-spacing:10.44310379px;fill:#666666;stroke:none;stroke-width:0.85407871"
         id="path926" />
      <path
         d="m 389.54801,663.43493 q 2.35726,0 4.03126,1.0249 1.70815,1.02489 2.5964,2.90386 0.9224,1.84481 0.9224,4.33872 v 1.81065 h -12.53788 q 0.0683,3.10885 1.57151,4.74868 1.53734,1.60567 4.27039,1.60567 1.74232,0 3.07469,-0.30747 1.36652,-0.34163 2.80138,-0.95657 v 2.63056 q -1.40069,0.61494 -2.76722,0.88825 -1.36653,0.30746 -3.2455,0.30746 -2.5964,0 -4.61202,-1.05905 -1.98147,-1.05906 -3.10885,-3.14301 -1.09322,-2.11812 -1.09322,-5.15864 0,-3.00636 0.99073,-5.15863 1.02489,-2.15228 2.83554,-3.31383 1.84481,-1.16155 4.27039,-1.16155 z m -0.0342,2.45975 q -2.15228,0 -3.41631,1.40069 -1.22988,1.36652 -1.46902,3.82627 h 9.32654 q -0.0342,-2.32309 -1.09322,-3.75795 -1.05906,-1.46901 -3.34799,-1.46901 z"
         style="font-style:normal;font-variant:normal;font-weight:normal;font-stretch:normal;font-family:'Noto Sans';-inkscape-font-specification:'Noto Sans';word-spacing:10.44310379px;fill:#666666;stroke:none;stroke-width:0.85407871"
         id="path928" />
      <path
         d="m 403.29709,656.90977 q 0.68327,0 1.19571,0.47828 0.54661,0.44413 0.54661,1.43486 0,0.95657 -0.54661,1.43485 -0.51244,0.47828 -1.19571,0.47828 -0.75159,0 -1.26403,-0.47828 -0.51245,-0.47828 -0.51245,-1.43485 0,-0.99073 0.51245,-1.43486 0.51244,-0.47828 1.26403,-0.47828 z m 1.46902,6.86679 v 18.31145 h -3.00636 v -18.31145 z"
         style="font-style:normal;font-variant:normal;font-weight:normal;font-stretch:normal;font-family:'Noto Sans';-inkscape-font-specification:'Noto Sans';word-spacing:10.44310379px;fill:#666666;stroke:none;stroke-width:0.85407871"
         id="path930" />
      <path
         d="m 417.91251,682.42964 q -2.42559,0 -4.33872,-0.99073 -1.87898,-0.99073 -2.9722,-3.07468 -1.05906,-2.08395 -1.05906,-5.32945 0,-3.38215 1.12739,-5.50027 1.12738,-2.11811 3.04052,-3.10885 1.9473,-0.99073 4.40705,-0.99073 1.40068,0 2.69888,0.30747 1.2982,0.27331 2.11812,0.68326 l -0.92241,2.49391 q -0.81991,-0.30746 -1.91313,-0.58077 -1.09322,-0.27331 -2.04979,-0.27331 -5.39778,0 -5.39778,6.93512 0,3.31383 1.2982,5.09031 1.33236,1.74232 3.92876,1.74232 1.50318,0 2.63057,-0.30746 1.16154,-0.30747 2.11811,-0.75159 v 2.66472 q -0.9224,0.47829 -2.04979,0.71743 -1.09322,0.2733 -2.66472,0.2733 z"
         style="font-style:normal;font-variant:normal;font-weight:normal;font-stretch:normal;font-family:'Noto Sans';-inkscape-font-specification:'Noto Sans';word-spacing:10.44310379px;fill:#666666;stroke:none;stroke-width:0.85407871"
         id="path932" />
      <path
         d="m 429.98812,656.12402 v 7.61838 q 0,1.36653 -0.17081,2.56224 h 0.20498 q 0.88824,-1.40069 2.39142,-2.11812 1.53734,-0.71742 3.31382,-0.71742 3.34799,0 5.02199,1.60566 1.67399,1.57151 1.67399,5.09031 v 11.92294 h -2.97219 v -11.71796 q 0,-4.40704 -4.09958,-4.40704 -3.07469,0 -4.23623,1.74232 -1.12739,1.70815 -1.12739,4.91949 v 9.46319 h -3.00635 v -25.96399 z"
         style="font-style:normal;font-variant:normal;font-weight:normal;font-stretch:normal;font-family:'Noto Sans';-inkscape-font-specification:'Noto Sans';word-spacing:10.44310379px;fill:#666666;stroke:none;stroke-width:0.85407871"
         id="path934" />
      <path
         d="m 455.13859,663.43493 q 2.35726,0 4.03125,1.0249 1.70816,1.02489 2.5964,2.90386 0.92241,1.84481 0.92241,4.33872 v 1.81065 h -12.53788 q 0.0683,3.10885 1.57151,4.74868 1.53734,1.60567 4.27039,1.60567 1.74232,0 3.07468,-0.30747 1.36653,-0.34163 2.80138,-0.95657 v 2.63056 q -1.40069,0.61494 -2.76721,0.88825 -1.36653,0.30746 -3.2455,0.30746 -2.5964,0 -4.61203,-1.05905 -1.98146,-1.05906 -3.10885,-3.14301 -1.09322,-2.11812 -1.09322,-5.15864 0,-3.00636 0.99074,-5.15863 1.02489,-2.15228 2.83554,-3.31383 1.84481,-1.16155 4.27039,-1.16155 z m -0.0342,2.45975 q -2.15228,0 -3.41632,1.40069 -1.22987,1.36652 -1.46901,3.82627 h 9.32654 q -0.0342,-2.32309 -1.09322,-3.75795 -1.05906,-1.46901 -3.34799,-1.46901 z"
         style="font-style:normal;font-variant:normal;font-weight:normal;font-stretch:normal;font-family:'Noto Sans';-inkscape-font-specification:'Noto Sans';word-spacing:10.44310379px;fill:#666666;stroke:none;stroke-width:0.85407871"
         id="path936" />
      <path
         d="m 476.16442,663.43493 q 3.27966,0 4.95366,1.60567 1.67399,1.57151 1.67399,5.12447 v 11.92294 h -2.97219 v -11.71796 q 0,-4.40704 -4.09958,-4.40704 -3.04052,0 -4.20207,1.70815 -1.16155,1.70816 -1.16155,4.9195 v 9.49735 h -3.00635 v -18.31145 h 2.42558 l 0.44412,2.49391 h 0.17082 q 0.88824,-1.43485 2.45974,-2.11811 1.57151,-0.71743 3.31383,-0.71743 z"
         style="font-style:normal;font-variant:normal;font-weight:normal;font-stretch:normal;font-family:'Noto Sans';-inkscape-font-specification:'Noto Sans';word-spacing:10.44310379px;fill:#666666;stroke:none;stroke-width:0.85407871"
         id="path938" />
    </g>
  </g>
  <g
     transform="translate(0.9283579,-573.86945)"
     style="display:inline"
     inkscape:label="sync_oben"
     id="g861"
     inkscape:groupmode="layer" />
  <g
     style="display:none"
     transform="translate(1.0740509,-341.55706)"
     id="layer1" />
  <g
     style="display:inline"
     transform="translate(1.0740509,-573.72375)"
     id="layer4" />
  <g
     style="display:none"
     id="layer6"
     transform="translate(0.9283579,-573.86945)">
    <g
       style="display:inline;fill:#666666;stroke:#000000;stroke-width:2.22120738;stroke-miterlimit:4;stroke-dasharray:none"
       transform="matrix(-0.59558449,0,0,0.59558449,843.96006,370.55245)"
       id="g1045">
      <path
         id="path1030"
         transform="matrix(0.26458333,0,0,0.26458333,704.94096,-489.69293)"
         d="m 2298.5254,-496.48828 a 78.550787,78.550787 0 0 0 -78.418,82.2832 l 26.1836,541.80274 A 1617.8844,1617.8844 0 0 0 1010.293,-444.12109 c -792.70835,0 -1452.66501,568.96984 -1594.18753,1321.09375 a 78.550787,78.550787 0 0 0 77.24219,92.82031 h 321.07617 a 78.550787,78.550787 0 0 0 76.39062,-60.61524 1151.489,1151.489 0 0 1 16.908206,-57.40234 1151.8347,1151.8347 0 0 1 5.914063,-20.08203 1151.489,1151.489 0 0 1 32.242187,-88.33008 1151.8347,1151.8347 0 0 1 7.976563,-19.60156 1151.489,1151.489 0 0 1 40.6621091,-84.17774 1151.8347,1151.8347 0 0 1 10.2363281,-19.35546 1151.489,1151.489 0 0 1 48.3046878,-78.78711 1151.8347,1151.8347 0 0 1 12.808594,-19.2793 1151.489,1151.489 0 0 1 55.013672,-72.36328 1151.8347,1151.8347 0 0 1 15.72852,-19.19531 1151.489,1151.489 0 0 1 60.58593,-65.03516 1151.8347,1151.8347 0 0 1 19.13281,-19.09375 1151.489,1151.489 0 0 1 64.89844,-57.01172 1151.8347,1151.8347 0 0 1 23.00196,-18.76758 1151.489,1151.489 0 0 1 67.89062,-48.54883 1151.8347,1151.8347 0 0 1 27.31836,-18.0664 1151.489,1151.489 0 0 1 69.49219,-39.86328 1151.8347,1151.8347 0 0 1 32.09765,-16.88868 1151.489,1151.489 0 0 1 69.69922,-31.1914 1151.8347,1151.8347 0 0 1 37.20313,-15.04883 1151.489,1151.489 0 0 1 68.62109,-22.800781 1151.8347,1151.8347 0 0 1 42.51758,-12.425781 1151.489,1151.489 0 0 1 66.33008,-14.886719 1151.8347,1151.8347 0 0 1 47.87695,-8.929687 1151.489,1151.489 0 0 1 62.94727,-7.640625 1151.8347,1151.8347 0 0 1 58.97656,-4.986328 1151.489,1151.489 0 0 1 30.45703,-1.078125 1151.8347,1151.8347 0 0 1 25.74995,-0.91211 1151.8347,1151.8347 0 0 1 38.2579,1.914063 1151.489,1151.489 0 0 1 54.9297,2.748047 1151.8347,1151.8347 0 0 1 63.0195,7.320312 1151.489,1151.489 0 0 1 49.2793,7.449219 1151.8347,1151.8347 0 0 1 67.0683,14.693359 1151.489,1151.489 0 0 1 43.1836,11.025391 1151.8347,1151.8347 0 0 1 70.3086,22.960937 1151.489,1151.489 0 0 1 36.8946,13.466798 1151.8347,1151.8347 0 0 1 72.5,32 1151.489,1151.489 0 0 1 30.6171,14.78906 1151.8347,1151.8347 0 0 1 73.4688,41.64258 1151.489,1151.489 0 0 1 24.5879,15.07422 1151.8347,1151.8347 0 0 1 73.125,51.72851 1151.489,1151.489 0 0 1 18.9101,14.375 1151.8347,1151.8347 0 0 1 71.295,61.98243 1151.489,1151.489 0 0 1 13.875,12.92578 1151.8347,1151.8347 0 0 1 67.9668,72.20898 1151.489,1151.489 0 0 1 9.4511,10.75781 1151.8347,1151.8347 0 0 1 63.1407,82.17774 1151.489,1151.489 0 0 1 9.6621,13.50976 1151.8347,1151.8347 0 0 1 180.9746,439.90625 h 464.6836 a 78.550787,78.550787 0 0 0 78.5507,-78.55078 V -417.9375 a 78.550787,78.550787 0 0 0 -78.5507,-78.55078 z M -585.79297,1386.5703 a 78.550787,78.550787 0 0 0 -78.55078,78.5508 v 1311.3398 a 78.550787,78.550787 0 0 0 78.55078,78.5508 h 309.94922 a 78.550787,78.550787 0 0 0 78.55078,-82.4765 l -27.16601,-540.4961 A 1617.9498,1617.9498 0 0 0 1010.293,2802.6445 c 792.7739,0 1452.7317,-568.9681 1594.2539,-1321.0918 a 78.550787,78.550787 0 0 0 -77.2422,-92.8222 h -321.0762 a 78.550787,78.550787 0 0 0 -76.3906,60.6152 1151.1618,1151.1618 0 0 1 -0.6777,2.3047 1151.8347,1151.8347 0 0 1 -30.9082,105.1094 1151.1618,1151.1618 0 0 1 -2.9551,8.0937 1151.8347,1151.8347 0 0 1 -39.3867,96.9199 1151.1618,1151.1618 0 0 1 -5.9512,12.3184 1151.8347,1151.8347 0 0 1 -46.4707,87.9687 1151.1618,1151.1618 0 0 1 -9.8789,16.1114 1151.8347,1151.8347 0 0 1 -52.1231,78.5234 1151.1618,1151.1618 0 0 1 -14.6172,19.2305 1151.8347,1151.8347 0 0 1 -56.3632,68.8476 1151.1618,1151.1618 0 0 1 -20.086,21.5606 1151.8347,1151.8347 0 0 1 -59.1797,59.1074 1151.1618,1151.1618 0 0 1 -26.1386,22.9609 1151.8347,1151.8347 0 0 1 -60.6875,49.5606 1151.1618,1151.1618 0 0 1 -32.5528,23.2773 1151.8347,1151.8347 0 0 1 -60.9902,40.3789 1151.1618,1151.1618 0 0 1 -39.1836,22.4766 1151.8347,1151.8347 0 0 1 -60.2207,31.7168 1151.1618,1151.1618 0 0 1 -45.7441,20.4727 1151.8347,1151.8347 0 0 1 -58.5567,23.7148 1151.1618,1151.1618 0 0 1 -52.0566,17.2969 1151.8347,1151.8347 0 0 1 -56.1953,16.4511 1151.1618,1151.1618 0 0 1 -57.8692,12.9883 1151.8347,1151.8347 0 0 1 -53.2539,9.9551 1151.1618,1151.1618 0 0 1 -63.0605,7.6543 1151.8347,1151.8347 0 0 1 -55.2129,4.6934 1151.1618,1151.1618 0 0 1 -59.2246,2.3007 1149.5253,1149.5253 0 0 1 -955.701203,-509.2695 l 2.294922,0.1094 A 1151.8347,1151.8347 0 0 1 -121.08008,1386.5703 Z"
         style="fill:#666666;stroke:#000000;stroke-width:8.3951149;stroke-miterlimit:4;stroke-dasharray:none"
         inkscape:connector-curvature="0" />
    </g>
  </g>
  <g
     transform="translate(0.9283579,-573.86945)"
     style="display:inline"
     inkscape:label="apfel"
     id="g1351"
     inkscape:groupmode="layer" />
  <g
     inkscape:groupmode="layer"
     id="g889"
     inkscape:label="apfel Kopie"
     style="display:none"
     transform="translate(0.9283579,-573.86945)">
    <path
       inkscape:connector-curvature="0"
       style="display:inline;fill:#ffff00;stroke:#666666;stroke-width:1.74175215;stroke-miterlimit:4;stroke-dasharray:none"
       d="m 375.60237,26.904092 c 5.12458,-1.516184 29.3232,-6.321728 52.95491,4.844381 21.86155,10.331824 24.17528,29.99555 24.40078,32.884647 4.42301,1.185384 8.83955,4.641947 10.90145,6.425957 0.34997,-2.246142 0.61385,-4.530429 0.71975,-6.709952 0.475,-9.724794 2.47497,-19.502086 4.7872,-25.976781 2.31067,-6.477464 4.29943,-16.968645 6.54956,-16.076318 2.24998,0.888124 8.84855,3.155574 7.35947,5.311408 -1.48201,2.15575 -6.18258,2.972966 -8.81722,9.800497 -2.63462,6.824629 -6.25476,17.200219 -6.77844,29.136084 -0.23491,5.355421 -0.90682,9.743804 -1.261,13.020019 6.46862,1.331876 7.42467,1.554329 13.04465,7.364131 6.26645,6.469921 9.61022,8.557047 17.48523,33.755325 7.86793,25.19559 31.78579,33.71858 32.29295,71.51245 0.51168,37.79524 -27.20676,60.72023 -39.20836,64.23416 -12.00306,3.51822 -15.62473,3.25946 -18.02614,3.90127 -2.40282,0.64192 -9.31229,2.25631 -12.33409,1.38615 -3.02902,-0.87426 -8.75286,-1.10998 -12.65472,0.16499 -3.90199,1.27351 -14.17347,-1.03087 -26.03861,-9.71087 -11.87079,-8.68411 -25.39078,-28.31492 -27.93472,-38.34461 -2.54941,-10.024 -7.39546,-34.34801 6.45337,-57.69861 13.84157,-23.35616 20.01858,-34.71363 25.55078,-49.11708 5.53082,-14.401996 15.06191,-22.454028 24.04706,-26.537875 0,0 5.36409,-2.86921 13.22509,-1.716468 0.43056,-1.780025 0.8503,-3.741226 1.21666,-5.775168 -4.49252,-5.026478 -8.83908,-6.612695 -11.17827,-7.096852 -8.13469,11.855456 -24.20463,16.294436 -50.27607,9.121623 -26.72206,-7.346893 -37.29044,-28.789637 -38.49397,-32.503008 -1.205,-3.717526 -6.02395,-9.654892 -8.08815,-12.52556 4.35188,0.928747 14.97065,-1.553333 20.10084,-3.073854"
       id="path885" />
    <path
       inkscape:connector-curvature="0"
       style="display:inline;fill:#ff0000;stroke:#666666;stroke-width:1.51564479;stroke-miterlimit:4;stroke-dasharray:none"
       d="m 15.485741,294.2267 c 11.025268,-10.05024 25.551083,-22.52548 52.732645,-15.21796 0,0 7.874845,2.65314 13.63536,3.07239 0.430279,-6.63897 -1.80695,-12.77947 -2.609345,-15.27356 -2.638383,-7.85963 -9.560708,-10.659 -10.228801,-11.36672 -0.697469,-0.73315 1.871485,-2.91837 3.897171,-3.57723 2.023987,-0.66327 1.893625,1.43454 2.865289,2.60589 4.349468,3.41717 7.240263,12.62343 7.967492,16.91914 0.592213,3.49251 0.435566,7.81367 0.474272,10.74921 3.088984,-0.014 10.787026,-0.17221 17.030066,-1.3939 7.99713,-1.56792 29.47256,-0.67088 39.8727,12.20086 10.4036,12.86843 18.89927,24.6386 17.47759,49.25684 -1.41872,24.61082 -18.12771,44.79211 -21.92302,49.93832 -3.79256,5.14005 -13.45354,15.22739 -25.80746,21.46895 -12.351506,6.23673 -28.42683,1.74557 -32.003364,1.37217 -3.571247,-0.37894 -12.456224,-0.4796 -16.060316,0.26287 -3.602513,0.74149 -23.381742,0.76226 -33.971072,-10.57028 C 18.249626,393.33533 6.0923597,381.67659 1.474363,356.51368 -3.1500357,331.34932 4.465317,304.27942 15.48573,294.22674"
       id="path887" />
  </g>
</svg>
