<?xml version="1.0" encoding="UTF-8" standalone="no"?>
<!-- Created with Inkscape (http://www.inkscape.org/) -->

<svg
   xmlns:dc="http://purl.org/dc/elements/1.1/"
   xmlns:cc="http://creativecommons.org/ns#"
   xmlns:rdf="http://www.w3.org/1999/02/22-rdf-syntax-ns#"
   xmlns:svg="http://www.w3.org/2000/svg"
   xmlns="http://www.w3.org/2000/svg"
   xmlns:sodipodi="http://sodipodi.sourceforge.net/DTD/sodipodi-0.dtd"
   xmlns:inkscape="http://www.inkscape.org/namespaces/inkscape"
   width="2001.1014"
   height="2830.6692"
   viewBox="0 0 529.45807 748.94791"
   version="1.1"
   id="svg8"
   inkscape:version="0.92.4 (5da689c313, 2019-01-14)"
   sodipodi:docname="logo_full.svg"
   inkscape:export-filename="/home/frank/Rastergrafik.png"
   inkscape:export-xdpi="9.6000004"
   inkscape:export-ydpi="9.6000004">
  <defs
     id="defs2" />
  <sodipodi:namedview
     id="base"
     pagecolor="#ffffff"
     bordercolor="#666666"
     borderopacity="1.0"
     inkscape:pageopacity="0"
     inkscape:pageshadow="2"
     inkscape:zoom="0.16"
     inkscape:cx="864.5239"
     inkscape:cy="2227.2657"
     inkscape:document-units="mm"
     inkscape:current-layer="layer4"
     showgrid="false"
     units="px"
     inkscape:window-width="1920"
     inkscape:window-height="1141"
     inkscape:window-x="1920"
     inkscape:window-y="0"
     inkscape:window-maximized="1"
     inkscape:snap-bbox="true"
     inkscape:bbox-paths="true"
     inkscape:bbox-nodes="true"
     inkscape:snap-bbox-edge-midpoints="true"
     inkscape:snap-bbox-midpoints="true"
     inkscape:object-paths="true"
     inkscape:snap-intersection-paths="true"
     inkscape:snap-smooth-nodes="true"
     inkscape:snap-midpoints="true"
     inkscape:snap-object-midpoints="true"
     inkscape:snap-center="true"
     inkscape:snap-text-baseline="true"
     inkscape:snap-page="true"
     showguides="false"
     inkscape:guide-bbox="true"
     fit-margin-top="0"
     fit-margin-left="0"
     fit-margin-right="0"
     fit-margin-bottom="0"
     inkscape:snap-global="false">
    <sodipodi:guide
       position="264.72902,484.21883"
       orientation="0,1"
       id="guide910"
       inkscape:locked="false"
       inkscape:label=""
       inkscape:color="rgb(0,0,255)" />
    <sodipodi:guide
       position="264.72902,484.21883"
       orientation="1,0"
       id="guide912"
       inkscape:locked="false"
       inkscape:label=""
       inkscape:color="rgb(0,0,255)" />
    <sodipodi:guide
       position="132.43736,351.92717"
       orientation="0,1"
       id="guide914"
       inkscape:locked="false"
       inkscape:label=""
       inkscape:color="rgb(0,0,255)" />
    <sodipodi:guide
       position="397.02069,616.5105"
       orientation="0,1"
       id="guide916"
       inkscape:locked="false"
       inkscape:label=""
       inkscape:color="rgb(0,0,255)" />
    <sodipodi:guide
       position="132.43736,351.92717"
       orientation="1,0"
       id="guide918"
       inkscape:locked="false"
       inkscape:label=""
       inkscape:color="rgb(0,0,255)" />
    <sodipodi:guide
       position="397.02069,616.5105"
       orientation="1,0"
       id="guide920"
       inkscape:locked="false"
       inkscape:label=""
       inkscape:color="rgb(0,0,255)" />
    <sodipodi:guide
       position="0.66145857,538.49598"
       orientation="1,0"
       id="guide2163"
       inkscape:locked="false" />
    <sodipodi:guide
       position="528.7966,419.47136"
       orientation="1,0"
       id="guide2165"
       inkscape:locked="false" />
    <sodipodi:guide
       position="497.09995,97.314279"
       orientation="0,1"
       id="guide2281"
       inkscape:locked="false" />
  </sodipodi:namedview>
  <metadata
     id="metadata5">
    <rdf:RDF>
      <cc:Work
         rdf:about="">
        <dc:format>image/svg+xml</dc:format>
        <dc:type
           rdf:resource="http://purl.org/dc/dcmitype/StillImage" />
        <dc:title></dc:title>
      </cc:Work>
    </rdf:RDF>
  </metadata>
  <g
     inkscape:label="Ebene 1"
     inkscape:groupmode="layer"
     id="layer1"
     transform="translate(0.14569305,232.31239)"
     style="display:none" />
  <g
     inkscape:groupmode="layer"
     id="layer4"
     inkscape:label="hintergrund"
     transform="translate(0.14569305,0.14570703)"
     style="display:inline">
    <circle
       style="display:inline;opacity:1;fill:#ffffff;fill-opacity:1;fill-rule:nonzero;stroke:none;stroke-width:1.27424037;stroke-miterlimit:4;stroke-dasharray:none;stroke-opacity:1"
       id="path3652"
       cx="264.42419"
       cy="264.85663"
       r="254.35127"
       inkscape:export-filename="/home/frank/logo.png"
       inkscape:export-xdpi="300"
       inkscape:export-ydpi="300" />
  </g>
  <g
     inkscape:groupmode="layer"
     id="layer3"
     inkscape:label="obst"
     transform="translate(0.14569305,0.14570703)"
     style="display:inline">
    <path
       style="fill:#ffff00;stroke:#666666;stroke-width:1.32291663;stroke-miterlimit:4;stroke-dasharray:none"
       d="m 277.04666,130.07019 c 3.91231,-1.08247 22.35485,-4.4062 40.15176,4.39221 16.46378,8.14098 17.95617,23.1059 18.08853,25.30308 3.34312,0.9598 6.65074,3.6444 8.19264,5.02705 0.29604,-1.70114 0.52721,-3.43241 0.63698,-5.08623 0.4917,-7.37917 2.14226,-14.77769 3.98548,-19.6638 1.84209,-4.88824 3.49375,-12.82907 5.19061,-12.12108 1.69681,0.70479 6.6776,2.51568 5.51767,4.1329 -1.15455,1.61723 -4.73544,2.17458 -6.82827,7.32431 -2.09279,5.14755 -4.98185,12.97862 -5.5403,22.03634 -0.25051,4.06405 -0.8199,7.3878 -1.133,9.87118 4.89471,1.0986 5.61778,1.28043 9.80768,5.76841 4.67199,4.998 7.18333,6.62812 12.82473,25.87119 5.63607,19.24093 23.68589,26.03586 23.56212,54.74554 -0.12037,28.71076 -21.48005,45.74805 -30.64209,48.25512 -9.16319,2.51029 -11.9102,2.265 -13.74261,2.72009 -1.83348,0.45516 -7.10266,1.58818 -9.3859,0.88663 -2.28863,-0.70476 -6.63246,-0.96085 -9.61293,-0.0451 -2.98054,0.91462 -10.75026,-0.97378 -19.64444,-7.72564 -8.89842,-6.75507 -18.90192,-21.84589 -20.69887,-29.49729 -1.80119,-7.64712 -5.15399,-26.18544 5.67804,-43.73274 10.82661,-17.5516 15.67074,-26.09394 20.06616,-36.95824 4.39436,-10.86323 11.74126,-16.85007 18.6201,-19.83057 0,0 4.11242,-2.10681 10.067,-1.1255 0.35096,-1.34606 0.69614,-2.82985 1.00176,-4.3696 -3.34419,-3.8779 -6.62384,-5.1411 -8.39385,-5.54029 -6.33759,8.89417 -18.6018,12.04897 -38.30537,6.25045 -20.19533,-5.9395 -27.93281,-22.36668 -28.79683,-25.20303 -0.86508,-2.83953 -4.44492,-7.4136 -5.97393,-9.62155 3.29256,0.76394 11.39048,-0.97809 15.30713,-2.06377"
       id="path865"
       inkscape:connector-curvature="0"
       inkscape:export-filename="/home/frank/logo.png"
       inkscape:export-xdpi="300"
       inkscape:export-ydpi="300" />
    <path
       style="fill:#ff0000;stroke:#666666;stroke-width:1.32291663;stroke-miterlimit:4;stroke-dasharray:none"
       d="m 113.99616,219.25085 c 7.48677,-10.65406 17.4959,-24.03821 42.0402,-22.96867 0,0 7.21249,0.76658 12.19985,0.031 -0.89281,-5.73786 -3.96372,-10.54505 -5.12047,-12.51772 -3.7388,-6.19575 -10.1675,-7.26759 -10.87096,-7.74383 -0.7333,-0.49231 1.04085,-2.84139 2.64171,-3.78699 1.59857,-0.94904 1.88546,0.86298 2.93549,1.67661 4.35389,2.08628 8.56319,9.38141 9.99766,12.90331 1.16708,2.86319 1.85333,6.57444 2.44318,9.06812 2.62909,-0.59789 9.15763,-2.19301 14.24483,-4.41816 6.51592,-2.85286 24.98266,-6.16246 36.28511,2.83107 11.30474,8.99008 20.77566,17.40638 24.23445,38.65026 3.45993,21.23699 -6.94741,41.60067 -9.20468,46.70508 -2.25613,5.09866 -8.57352,15.52551 -17.91477,23.18671 -9.3401,7.65661 -23.88788,6.8797 -27.00584,7.24004 -3.11451,0.3546 -10.70341,1.95432 -13.63316,3.27058 -2.92861,1.31512 -19.77613,5.0849 -30.94776,-2.56138 -11.16933,-7.65202 -23.73869,-15.27879 -32.44648,-35.841 -8.71352,-20.56222 -7.36053,-45.06979 0.12164,-55.72501"
       id="path867"
       inkscape:connector-curvature="0"
       inkscape:export-filename="/home/frank/logo.png"
       inkscape:export-xdpi="300"
       inkscape:export-ydpi="300" />
    <path
       id="path985"
       d="m 257.06345,281.45723 c -3.72581,-3.37849 -9.53552,-3.15746 -13.45076,0 l -29.17489,23.33358 c -3.56793,2.8733 -8.01995,4.42045 -12.62984,4.42045 h -37.3527 c -2.77855,0 -5.05192,-2.27338 -5.05192,-5.05192 0,-2.77857 2.27337,-5.05195 5.05192,-5.05195 h 24.72289 c 5.02034,0 9.69338,-3.44162 10.51432,-8.39883 1.04196,-6.31489 -3.82051,-11.80889 -9.97756,-11.80889 h -50.5193 c -8.52514,0 -16.76609,2.93646 -23.39675,8.30412 l -14.68217,11.9036 H 83.624395 c -2.77857,0 -5.051939,2.27338 -5.051939,5.05195 v 30.31157 c 0,2.77856 2.273369,5.05194 5.051939,5.05194 H 196.28242 c 4.5783,0 9.03032,-1.54716 12.62983,-4.42045 l 47.74074,-38.20522 c 4.79932,-3.82052 5.17822,-11.14582 0.41046,-15.43995 z"
       inkscape:connector-curvature="0"
       style="fill:currentColor;stroke:#666666;stroke-width:1.32291663;stroke-miterlimit:4;stroke-dasharray:none"
       inkscape:export-filename="/home/frank/logo.png"
       inkscape:export-xdpi="300"
       inkscape:export-ydpi="300" />
    <path
       id="path985-3"
       d="m 268.89745,281.45723 c 3.72582,-3.37849 9.53552,-3.15746 13.45077,0 l 29.17491,23.33358 c 3.56791,2.8733 8.01994,4.42045 12.62983,4.42045 h 37.3527 c 2.77856,0 5.05192,-2.27338 5.05192,-5.05192 0,-2.77857 -2.27336,-5.05195 -5.05192,-5.05195 h -24.72289 c -5.02035,0 -9.69338,-3.44162 -10.51432,-8.39883 -1.04196,-6.31489 3.82051,-11.80889 9.97756,-11.80889 h 50.51929 c 8.52514,0 16.76609,2.93646 23.39676,8.30412 l 14.68217,11.9036 h 17.49231 c 2.77856,0 5.05193,2.27338 5.05193,5.05195 v 30.31157 c 0,2.77856 -2.27337,5.05194 -5.05193,5.05194 H 329.6785 c -4.57831,0 -9.03032,-1.54716 -12.62983,-4.42045 l -47.74075,-38.20522 c -4.79932,-3.82052 -5.17821,-11.14582 -0.41047,-15.43995 z"
       inkscape:connector-curvature="0"
       style="fill:currentColor;stroke:#666666;stroke-width:1.32291663;stroke-miterlimit:4;stroke-dasharray:none"
       inkscape:export-filename="/home/frank/logo.png"
       inkscape:export-xdpi="300"
       inkscape:export-ydpi="300" />
  </g>
  <g
     inkscape:groupmode="layer"
     id="layer2"
     inkscape:label="neu"
     transform="translate(0.14569305,0.14570703)"
     style="display:inline">
    <g
       id="g1045"
       transform="matrix(-0.59558448,0,0,0.59558448,843.81437,370.40674)"
       style="fill:#666666;stroke:#000000;stroke-width:2.22120738;stroke-miterlimit:4;stroke-dasharray:none"
       inkscape:export-filename="/home/frank/logo.png"
       inkscape:export-xdpi="300"
       inkscape:export-ydpi="300">
      <path
         style="fill:#666666;stroke:#000000;stroke-width:8.3951149;stroke-miterlimit:4;stroke-dasharray:none"
         d="m 2298.5254,-496.48828 a 78.550787,78.550787 0 0 0 -78.418,82.2832 l 26.1836,541.80274 A 1617.8844,1617.8844 0 0 0 1010.293,-444.12109 c -792.70835,0 -1452.66501,568.96984 -1594.18753,1321.09375 a 78.550787,78.550787 0 0 0 77.24219,92.82031 h 321.07617 a 78.550787,78.550787 0 0 0 76.39062,-60.61524 1151.489,1151.489 0 0 1 16.908206,-57.40234 1151.8347,1151.8347 0 0 1 5.914063,-20.08203 1151.489,1151.489 0 0 1 32.242187,-88.33008 1151.8347,1151.8347 0 0 1 7.976563,-19.60156 1151.489,1151.489 0 0 1 40.6621091,-84.17774 1151.8347,1151.8347 0 0 1 10.2363281,-19.35546 1151.489,1151.489 0 0 1 48.3046878,-78.78711 1151.8347,1151.8347 0 0 1 12.808594,-19.2793 1151.489,1151.489 0 0 1 55.013672,-72.36328 1151.8347,1151.8347 0 0 1 15.72852,-19.19531 1151.489,1151.489 0 0 1 60.58593,-65.03516 1151.8347,1151.8347 0 0 1 19.13281,-19.09375 1151.489,1151.489 0 0 1 64.89844,-57.01172 1151.8347,1151.8347 0 0 1 23.00196,-18.76758 1151.489,1151.489 0 0 1 67.89062,-48.54883 1151.8347,1151.8347 0 0 1 27.31836,-18.0664 1151.489,1151.489 0 0 1 69.49219,-39.86328 1151.8347,1151.8347 0 0 1 32.09765,-16.88868 1151.489,1151.489 0 0 1 69.69922,-31.1914 1151.8347,1151.8347 0 0 1 37.20313,-15.04883 1151.489,1151.489 0 0 1 68.62109,-22.800781 1151.8347,1151.8347 0 0 1 42.51758,-12.425781 1151.489,1151.489 0 0 1 66.33008,-14.886719 1151.8347,1151.8347 0 0 1 47.87695,-8.929687 1151.489,1151.489 0 0 1 62.94727,-7.640625 1151.8347,1151.8347 0 0 1 58.97656,-4.986328 1151.489,1151.489 0 0 1 30.45703,-1.078125 1151.8347,1151.8347 0 0 1 25.74995,-0.91211 1151.8347,1151.8347 0 0 1 38.2579,1.914063 1151.489,1151.489 0 0 1 54.9297,2.748047 1151.8347,1151.8347 0 0 1 63.0195,7.320312 1151.489,1151.489 0 0 1 49.2793,7.449219 1151.8347,1151.8347 0 0 1 67.0683,14.693359 1151.489,1151.489 0 0 1 43.1836,11.025391 1151.8347,1151.8347 0 0 1 70.3086,22.960937 1151.489,1151.489 0 0 1 36.8946,13.466798 1151.8347,1151.8347 0 0 1 72.5,32 1151.489,1151.489 0 0 1 30.6171,14.78906 1151.8347,1151.8347 0 0 1 73.4688,41.64258 1151.489,1151.489 0 0 1 24.5879,15.07422 1151.8347,1151.8347 0 0 1 73.125,51.72851 1151.489,1151.489 0 0 1 18.9101,14.375 1151.8347,1151.8347 0 0 1 71.295,61.98243 1151.489,1151.489 0 0 1 13.875,12.92578 1151.8347,1151.8347 0 0 1 67.9668,72.20898 1151.489,1151.489 0 0 1 9.4511,10.75781 1151.8347,1151.8347 0 0 1 63.1407,82.17774 1151.489,1151.489 0 0 1 9.6621,13.50976 1151.8347,1151.8347 0 0 1 180.9746,439.90625 h 464.6836 a 78.550787,78.550787 0 0 0 78.5507,-78.55078 V -417.9375 a 78.550787,78.550787 0 0 0 -78.5507,-78.55078 z M -585.79297,1386.5703 a 78.550787,78.550787 0 0 0 -78.55078,78.5508 v 1311.3398 a 78.550787,78.550787 0 0 0 78.55078,78.5508 h 309.94922 a 78.550787,78.550787 0 0 0 78.55078,-82.4765 l -27.16601,-540.4961 A 1617.9498,1617.9498 0 0 0 1010.293,2802.6445 c 792.7739,0 1452.7317,-568.9681 1594.2539,-1321.0918 a 78.550787,78.550787 0 0 0 -77.2422,-92.8222 h -321.0762 a 78.550787,78.550787 0 0 0 -76.3906,60.6152 1151.1618,1151.1618 0 0 1 -0.6777,2.3047 1151.8347,1151.8347 0 0 1 -30.9082,105.1094 1151.1618,1151.1618 0 0 1 -2.9551,8.0937 1151.8347,1151.8347 0 0 1 -39.3867,96.9199 1151.1618,1151.1618 0 0 1 -5.9512,12.3184 1151.8347,1151.8347 0 0 1 -46.4707,87.9687 1151.1618,1151.1618 0 0 1 -9.8789,16.1114 1151.8347,1151.8347 0 0 1 -52.1231,78.5234 1151.1618,1151.1618 0 0 1 -14.6172,19.2305 1151.8347,1151.8347 0 0 1 -56.3632,68.8476 1151.1618,1151.1618 0 0 1 -20.086,21.5606 1151.8347,1151.8347 0 0 1 -59.1797,59.1074 1151.1618,1151.1618 0 0 1 -26.1386,22.9609 1151.8347,1151.8347 0 0 1 -60.6875,49.5606 1151.1618,1151.1618 0 0 1 -32.5528,23.2773 1151.8347,1151.8347 0 0 1 -60.9902,40.3789 1151.1618,1151.1618 0 0 1 -39.1836,22.4766 1151.8347,1151.8347 0 0 1 -60.2207,31.7168 1151.1618,1151.1618 0 0 1 -45.7441,20.4727 1151.8347,1151.8347 0 0 1 -58.5567,23.7148 1151.1618,1151.1618 0 0 1 -52.0566,17.2969 1151.8347,1151.8347 0 0 1 -56.1953,16.4511 1151.1618,1151.1618 0 0 1 -57.8692,12.9883 1151.8347,1151.8347 0 0 1 -53.2539,9.9551 1151.1618,1151.1618 0 0 1 -63.0605,7.6543 1151.8347,1151.8347 0 0 1 -55.2129,4.6934 1151.1618,1151.1618 0 0 1 -59.2246,2.3007 1149.5253,1149.5253 0 0 1 -955.701203,-509.2695 l 2.294922,0.1094 A 1151.8347,1151.8347 0 0 1 -121.08008,1386.5703 Z"
         transform="matrix(0.26458333,0,0,0.26458333,704.94096,-489.69293)"
         id="path1030"
         inkscape:connector-curvature="0" />
    </g>
    <text
       xml:space="preserve"
       style="font-style:normal;font-weight:normal;font-size:77.21009064px;line-height:1.25;font-family:sans-serif;letter-spacing:0px;word-spacing:0px;display:inline;fill:#000000;fill-opacity:1;stroke:#666666;stroke-width:1.32291663;stroke-miterlimit:4;stroke-dasharray:none"
       x="-6.0470924"
       y="616.54193"
       id="text2541-8"
       inkscape:export-filename="/home/frank/nomoney.shop.png"
       inkscape:export-xdpi="300.07065"
       inkscape:export-ydpi="300.07065"><tspan
         sodipodi:role="line"
         id="tspan2539-0"
         x="-6.0470924"
         y="616.54193"
         style="font-style:normal;font-variant:normal;font-weight:normal;font-stretch:normal;font-family:'Noto Sans';-inkscape-font-specification:'Noto Sans';fill:#000000;stroke:#666666;stroke-width:1.32291663;stroke-miterlimit:4;stroke-dasharray:none"
         dy="0 0 0 0 0 0 0 0 22.975262">nomoney.shop</tspan></text>
    <text
       xml:space="preserve"
       style="font-style:normal;font-weight:normal;font-size:39.98300552px;line-height:1.25;font-family:sans-serif;letter-spacing:0px;word-spacing:0px;display:inline;fill:#666666;fill-opacity:1;stroke:none;stroke-width:0.99957502"
       x="-0.14569281"
       y="739.20624"
       id="text2243"
       inkscape:export-filename="/home/frank/logo_full.png"
       inkscape:export-xdpi="300"
       inkscape:export-ydpi="300"><tspan
         sodipodi:role="line"
         id="tspan2241"
         x="-0.14569281"
         y="739.20624"
         style="font-style:normal;font-variant:normal;font-weight:normal;font-stretch:normal;font-family:'Noto Sans';-inkscape-font-specification:'Noto Sans';fill:#666666;stroke-width:0.99957502">Äpfel mit Birnen vergleichen</tspan></text>
    <path
       style="fill:#000000;fill-rule:evenodd;stroke:#000000;stroke-width:0.93518585;stroke-linecap:butt;stroke-linejoin:miter;stroke-miterlimit:4;stroke-dasharray:none;stroke-opacity:1"
       d="M 132.29168,689.5854 H 396.875"
       id="path2323"
       inkscape:connector-type="polyline"
       inkscape:connector-curvature="0"
       inkscape:export-filename="/home/frank/logo_full.png"
       inkscape:export-xdpi="300"
       inkscape:export-ydpi="300" />
  </g>
</svg>
