<?xml version="1.0" encoding="UTF-8" standalone="no"?>
<svg
   xmlns:dc="http://purl.org/dc/elements/1.1/"
   xmlns:cc="http://creativecommons.org/ns#"
   xmlns:rdf="http://www.w3.org/1999/02/22-rdf-syntax-ns#"
   xmlns:svg="http://www.w3.org/2000/svg"
   xmlns="http://www.w3.org/2000/svg"
   xmlns:xlink="http://www.w3.org/1999/xlink"
   xmlns:sodipodi="http://sodipodi.sourceforge.net/DTD/sodipodi-0.dtd"
   xmlns:inkscape="http://www.inkscape.org/namespaces/inkscape"
   id="svg8"
   version="1.1"
   viewBox="0 0 530.78096 530.78096"
   height="2006.1012"
   width="2006.1013"
   sodipodi:docname="logo.svg"
   inkscape:version="0.92.4 (5da689c313, 2019-01-14)">
  <sodipodi:namedview
     pagecolor="#ffffff"
     bordercolor="#666666"
     borderopacity="1"
     objecttolerance="10"
     gridtolerance="10"
     guidetolerance="10"
     inkscape:pageopacity="0"
     inkscape:pageshadow="2"
     inkscape:window-width="1920"
     inkscape:window-height="1141"
     id="namedview32"
     showgrid="false"
     inkscape:zoom="0.23719657"
     inkscape:cx="1036.4192"
     inkscape:cy="772.21776"
     inkscape:window-x="1920"
     inkscape:window-y="0"
     inkscape:window-maximized="1"
     inkscape:current-layer="g861"
     fit-margin-top="0"
     fit-margin-left="0"
     fit-margin-right="0"
     fit-margin-bottom="0"
     showguides="false"
     inkscape:guide-bbox="true"
     inkscape:snap-bbox="true"
     inkscape:bbox-paths="true"
     inkscape:bbox-nodes="true"
     inkscape:snap-bbox-edge-midpoints="true"
     inkscape:snap-bbox-midpoints="true"
     inkscape:object-paths="true"
     inkscape:snap-intersection-paths="true"
     inkscape:snap-smooth-nodes="true"
     inkscape:snap-midpoints="true"
     inkscape:snap-object-midpoints="true"
     inkscape:snap-center="true"
     inkscape:snap-text-baseline="true"
     inkscape:snap-page="true">
    <sodipodi:guide
       position="218.76785,298.11968"
       orientation="0,1"
       id="guide889"
       inkscape:locked="false" />
    <sodipodi:guide
       position="414.19713,232.64066"
       orientation="0,1"
       id="guide891"
       inkscape:locked="false" />
  </sodipodi:namedview>
  <defs
     id="defs2">
    <linearGradient
       id="linearGradient913"
       inkscape:collect="always">
      <stop
         style="stop-color:#666666;stop-opacity:0;"
         offset="0"
         id="stop911" />
      <stop
         style="stop-color:#666666;stop-opacity:1;"
         offset="1"
         id="stop909" />
    </linearGradient>
    <linearGradient
       inkscape:collect="always"
       id="linearGradient897">
      <stop
         style="stop-color:#666666;stop-opacity:1;"
         offset="0"
         id="stop893" />
      <stop
         style="stop-color:#666666;stop-opacity:0;"
         offset="1"
         id="stop895" />
    </linearGradient>
    <linearGradient
       id="linearGradient877">
      <stop
         style="stop-color:#ffffff;stop-opacity:1;"
         offset="0"
         id="stop873" />
      <stop
         style="stop-color:#ffffff;stop-opacity:0;"
         offset="1"
         id="stop875" />
    </linearGradient>
    <linearGradient
       id="linearGradient876">
      <stop
         id="stop872"
         offset="0"
         style="stop-color:#ffffff;stop-opacity:1;" />
      <stop
         id="stop874"
         offset="1"
         style="stop-color:#ffffff;stop-opacity:0;" />
    </linearGradient>
    <radialGradient
       gradientTransform="matrix(1,-7.7618855e-6,-7.2182648e-8,1,-0.050978,-0.08284467)"
       gradientUnits="userSpaceOnUse"
       r="181.49884"
       fy="264.44559"
       fx="265.31461"
       cy="264.44559"
       cx="265.31461"
       id="radialGradient878"
       xlink:href="#linearGradient876" />
    <linearGradient
       inkscape:collect="always"
       xlink:href="#linearGradient897"
       id="linearGradient899"
       x1="-0.66145831"
       y1="115.99991"
       x2="517.61987"
       y2="115.99991"
       gradientUnits="userSpaceOnUse" />
    <linearGradient
       inkscape:collect="always"
       xlink:href="#linearGradient913"
       id="linearGradient907"
       x1="12.179455"
       y1="413.46844"
       x2="530.11951"
       y2="413.46844"
       gradientUnits="userSpaceOnUse" />
    <filter
       inkscape:label="Apparition"
       inkscape:menu="Blurs"
       inkscape:menu-tooltip="Edges are partly feathered out"
       style="color-interpolation-filters:sRGB"
       id="filter875">
      <feMorphology
         radius="4"
         in="SourceGraphic"
         result="result0"
         id="feMorphology869" />
      <feGaussianBlur
         in="result0"
         stdDeviation="8"
         result="result91"
         id="feGaussianBlur871" />
      <feComposite
         operator="in"
         in="SourceGraphic"
         in2="result91"
         id="feComposite873" />
    </filter>
    <filter
       inkscape:label="Apparition"
       inkscape:menu="Blurs"
       inkscape:menu-tooltip="Edges are partly feathered out"
       style="color-interpolation-filters:sRGB"
       id="filter883">
      <feMorphology
         radius="4"
         in="SourceGraphic"
         result="result0"
         id="feMorphology877" />
      <feGaussianBlur
         in="result0"
         stdDeviation="8"
         result="result91"
         id="feGaussianBlur879" />
      <feComposite
         operator="in"
         in="SourceGraphic"
         in2="result91"
         id="feComposite881" />
    </filter>
    <filter
       style="color-interpolation-filters:sRGB"
       inkscape:label="Drop Shadow"
       id="filter1591">
      <feFlood
         flood-opacity="0.498039"
         flood-color="rgb(0,0,0)"
         result="flood"
         id="feFlood1581" />
      <feComposite
         in="flood"
         in2="SourceGraphic"
         operator="out"
         result="composite1"
         id="feComposite1583" />
      <feGaussianBlur
         in="composite1"
         stdDeviation="9.98571"
         result="blur"
         id="feGaussianBlur1585" />
      <feOffset
         dx="0"
         dy="0"
         result="offset"
         id="feOffset1587" />
      <feComposite
         in="offset"
         in2="SourceGraphic"
         operator="atop"
         result="composite2"
         id="feComposite1589" />
    </filter>
    <filter
       style="color-interpolation-filters:sRGB"
       inkscape:label="Drop Shadow"
       id="filter1603">
      <feFlood
         flood-opacity="0.498039"
         flood-color="rgb(0,0,0)"
         result="flood"
         id="feFlood1593" />
      <feComposite
         in="flood"
         in2="SourceGraphic"
         operator="out"
         result="composite1"
         id="feComposite1595" />
      <feGaussianBlur
         in="composite1"
         stdDeviation="10"
         result="blur"
         id="feGaussianBlur1597" />
      <feOffset
         dx="0"
         dy="0"
         result="offset"
         id="feOffset1599" />
      <feComposite
         in="offset"
         in2="SourceGraphic"
         operator="atop"
         result="composite2"
         id="feComposite1601" />
    </filter>
    <filter
       style="color-interpolation-filters:sRGB"
       inkscape:label="Drop Shadow"
       id="filter1309">
      <feFlood
         flood-opacity="0.498039"
         flood-color="rgb(0,0,0)"
         result="flood"
         id="feFlood1299" />
      <feComposite
         in="flood"
         in2="SourceGraphic"
         operator="out"
         result="composite1"
         id="feComposite1301" />
      <feGaussianBlur
         in="composite1"
         stdDeviation="10"
         result="blur"
         id="feGaussianBlur1303" />
      <feOffset
         dx="0"
         dy="0"
         result="offset"
         id="feOffset1305" />
      <feComposite
         in="offset"
         in2="SourceGraphic"
         operator="atop"
         result="composite2"
         id="feComposite1307" />
    </filter>
    <filter
       style="color-interpolation-filters:sRGB"
       inkscape:label="Drop Shadow"
       id="filter1321">
      <feFlood
         flood-opacity="0.498039"
         flood-color="rgb(0,0,0)"
         result="flood"
         id="feFlood1311" />
      <feComposite
         in="flood"
         in2="SourceGraphic"
         operator="out"
         result="composite1"
         id="feComposite1313" />
      <feGaussianBlur
         in="composite1"
         stdDeviation="10"
         result="blur"
         id="feGaussianBlur1315" />
      <feOffset
         dx="0"
         dy="0"
         result="offset"
         id="feOffset1317" />
      <feComposite
         in="offset"
         in2="SourceGraphic"
         operator="atop"
         result="composite2"
         id="feComposite1319" />
    </filter>
  </defs>
  <metadata
     id="metadata5">
    <rdf:RDF>
      <cc:Work
         rdf:about="">
        <dc:format>image/svg+xml</dc:format>
        <dc:type
           rdf:resource="http://purl.org/dc/dcmitype/StillImage" />
        <dc:title></dc:title>
      </cc:Work>
    </rdf:RDF>
  </metadata>
  <g
     inkscape:groupmode="layer"
     id="layer10"
     inkscape:label="nomoneyshop"
     style="display:inline"
     transform="translate(0.66145831,0.66145831)" />
  <g
     inkscape:groupmode="layer"
     id="layer11"
     inkscape:label="slogan"
     style="display:inline"
     transform="translate(0.66145831,0.66145831)" />
  <g
     transform="translate(0.66145831,0.66145831)"
     style="display:inline"
     inkscape:label="sync_oben"
     id="g861"
     inkscape:groupmode="layer">
    <g
       id="g859"
       style="display:inline;fill:#666666;stroke:#000000">
      <path
         inkscape:connector-curvature="0"
         id="path855"
         d="m 73.78287,12.998599 -4.13641,85.59226 A 255.5876,255.5876 0 0 1 264.90481,8.2727558 c 125.22923,0 229.487,89.8838022 251.84419,208.7016042 a 12.409173,12.409173 0 0 1 -12.20234,14.6635 h -50.72253 a 12.409173,12.409173 0 0 1 -12.06793,-9.57574 181.90813,181.90813 0 0 0 -327.809,-58.8815 l 104.91958,-5.02574 a 12.409173,12.409173 0 0 1 12.99864,12.40917 v 49.02659 a 12.409173,12.409173 0 0 1 -12.40917,12.40918 H 12.40918 A 12.409173,12.409173 0 0 1 0,219.59064 V 12.409173 A 12.409173,12.409173 0 0 1 12.40918,0 h 48.9852 a 12.409173,12.409173 0 0 1 12.38849,12.998599 z"
         style="display:inline;fill:url(#linearGradient899);fill-opacity:1;stroke:#000000;stroke-width:1.32291663;stroke-miterlimit:4;stroke-dasharray:none" />
      <path
         inkscape:connector-curvature="0"
         id="path857"
         d="m 264.90481,446.73019 a 181.5979,181.5979 0 0 0 150.97829,-80.4528 l -105.27114,5.03605 a 12.409173,12.409173 0 0 1 -12.99864,-12.40917 v -49.01624 a 12.409173,12.409173 0 0 1 12.40917,-12.40917 h 207.0264 a 12.409173,12.409173 0 0 1 12.40917,12.40917 v 207.16082 a 12.409173,12.409173 0 0 1 -12.40917,12.40917 h -48.96453 a 12.409173,12.409173 0 0 1 -12.40917,-13.02963 l 4.2915,-85.38547 a 255.59794,255.59794 0 0 1 -195.06188,90.1423 c -125.23954,0 -229.49731,-89.88376 -251.8545,-208.70158 a 12.409173,12.409173 0 0 1 12.20234,-14.6635 h 50.72248 a 12.409173,12.409173 0 0 1 12.06794,9.57574 181.85643,181.85643 0 0 0 176.86174,139.33431 z"
         style="display:inline;fill:url(#linearGradient907);fill-opacity:1;fill-rule:nonzero;stroke:#000000;stroke-width:1.32291663;stroke-miterlimit:4;stroke-dasharray:none;stroke-opacity:1" />
    </g>
  </g>
  <g
     style="display:none"
     transform="translate(0.80715131,232.97385)"
     id="layer1" />
  <g
     style="display:inline"
     transform="translate(0.80715131,0.80716531)"
     id="layer4" />
  <g
     style="display:none"
     id="layer6"
     transform="translate(0.66145831,0.66145831)">
    <g
       style="display:inline;fill:#666666;stroke:#000000;stroke-width:2.22120738;stroke-miterlimit:4;stroke-dasharray:none"
       transform="matrix(-0.59558449,0,0,0.59558449,843.96006,370.55245)"
       id="g1045">
      <path
         id="path1030"
         transform="matrix(0.26458333,0,0,0.26458333,704.94096,-489.69293)"
         d="m 2298.5254,-496.48828 a 78.550787,78.550787 0 0 0 -78.418,82.2832 l 26.1836,541.80274 A 1617.8844,1617.8844 0 0 0 1010.293,-444.12109 c -792.70835,0 -1452.66501,568.96984 -1594.18753,1321.09375 a 78.550787,78.550787 0 0 0 77.24219,92.82031 h 321.07617 a 78.550787,78.550787 0 0 0 76.39062,-60.61524 1151.489,1151.489 0 0 1 16.908206,-57.40234 1151.8347,1151.8347 0 0 1 5.914063,-20.08203 1151.489,1151.489 0 0 1 32.242187,-88.33008 1151.8347,1151.8347 0 0 1 7.976563,-19.60156 1151.489,1151.489 0 0 1 40.6621091,-84.17774 1151.8347,1151.8347 0 0 1 10.2363281,-19.35546 1151.489,1151.489 0 0 1 48.3046878,-78.78711 1151.8347,1151.8347 0 0 1 12.808594,-19.2793 1151.489,1151.489 0 0 1 55.013672,-72.36328 1151.8347,1151.8347 0 0 1 15.72852,-19.19531 1151.489,1151.489 0 0 1 60.58593,-65.03516 1151.8347,1151.8347 0 0 1 19.13281,-19.09375 1151.489,1151.489 0 0 1 64.89844,-57.01172 1151.8347,1151.8347 0 0 1 23.00196,-18.76758 1151.489,1151.489 0 0 1 67.89062,-48.54883 1151.8347,1151.8347 0 0 1 27.31836,-18.0664 1151.489,1151.489 0 0 1 69.49219,-39.86328 1151.8347,1151.8347 0 0 1 32.09765,-16.88868 1151.489,1151.489 0 0 1 69.69922,-31.1914 1151.8347,1151.8347 0 0 1 37.20313,-15.04883 1151.489,1151.489 0 0 1 68.62109,-22.800781 1151.8347,1151.8347 0 0 1 42.51758,-12.425781 1151.489,1151.489 0 0 1 66.33008,-14.886719 1151.8347,1151.8347 0 0 1 47.87695,-8.929687 1151.489,1151.489 0 0 1 62.94727,-7.640625 1151.8347,1151.8347 0 0 1 58.97656,-4.986328 1151.489,1151.489 0 0 1 30.45703,-1.078125 1151.8347,1151.8347 0 0 1 25.74995,-0.91211 1151.8347,1151.8347 0 0 1 38.2579,1.914063 1151.489,1151.489 0 0 1 54.9297,2.748047 1151.8347,1151.8347 0 0 1 63.0195,7.320312 1151.489,1151.489 0 0 1 49.2793,7.449219 1151.8347,1151.8347 0 0 1 67.0683,14.693359 1151.489,1151.489 0 0 1 43.1836,11.025391 1151.8347,1151.8347 0 0 1 70.3086,22.960937 1151.489,1151.489 0 0 1 36.8946,13.466798 1151.8347,1151.8347 0 0 1 72.5,32 1151.489,1151.489 0 0 1 30.6171,14.78906 1151.8347,1151.8347 0 0 1 73.4688,41.64258 1151.489,1151.489 0 0 1 24.5879,15.07422 1151.8347,1151.8347 0 0 1 73.125,51.72851 1151.489,1151.489 0 0 1 18.9101,14.375 1151.8347,1151.8347 0 0 1 71.295,61.98243 1151.489,1151.489 0 0 1 13.875,12.92578 1151.8347,1151.8347 0 0 1 67.9668,72.20898 1151.489,1151.489 0 0 1 9.4511,10.75781 1151.8347,1151.8347 0 0 1 63.1407,82.17774 1151.489,1151.489 0 0 1 9.6621,13.50976 1151.8347,1151.8347 0 0 1 180.9746,439.90625 h 464.6836 a 78.550787,78.550787 0 0 0 78.5507,-78.55078 V -417.9375 a 78.550787,78.550787 0 0 0 -78.5507,-78.55078 z M -585.79297,1386.5703 a 78.550787,78.550787 0 0 0 -78.55078,78.5508 v 1311.3398 a 78.550787,78.550787 0 0 0 78.55078,78.5508 h 309.94922 a 78.550787,78.550787 0 0 0 78.55078,-82.4765 l -27.16601,-540.4961 A 1617.9498,1617.9498 0 0 0 1010.293,2802.6445 c 792.7739,0 1452.7317,-568.9681 1594.2539,-1321.0918 a 78.550787,78.550787 0 0 0 -77.2422,-92.8222 h -321.0762 a 78.550787,78.550787 0 0 0 -76.3906,60.6152 1151.1618,1151.1618 0 0 1 -0.6777,2.3047 1151.8347,1151.8347 0 0 1 -30.9082,105.1094 1151.1618,1151.1618 0 0 1 -2.9551,8.0937 1151.8347,1151.8347 0 0 1 -39.3867,96.9199 1151.1618,1151.1618 0 0 1 -5.9512,12.3184 1151.8347,1151.8347 0 0 1 -46.4707,87.9687 1151.1618,1151.1618 0 0 1 -9.8789,16.1114 1151.8347,1151.8347 0 0 1 -52.1231,78.5234 1151.1618,1151.1618 0 0 1 -14.6172,19.2305 1151.8347,1151.8347 0 0 1 -56.3632,68.8476 1151.1618,1151.1618 0 0 1 -20.086,21.5606 1151.8347,1151.8347 0 0 1 -59.1797,59.1074 1151.1618,1151.1618 0 0 1 -26.1386,22.9609 1151.8347,1151.8347 0 0 1 -60.6875,49.5606 1151.1618,1151.1618 0 0 1 -32.5528,23.2773 1151.8347,1151.8347 0 0 1 -60.9902,40.3789 1151.1618,1151.1618 0 0 1 -39.1836,22.4766 1151.8347,1151.8347 0 0 1 -60.2207,31.7168 1151.1618,1151.1618 0 0 1 -45.7441,20.4727 1151.8347,1151.8347 0 0 1 -58.5567,23.7148 1151.1618,1151.1618 0 0 1 -52.0566,17.2969 1151.8347,1151.8347 0 0 1 -56.1953,16.4511 1151.1618,1151.1618 0 0 1 -57.8692,12.9883 1151.8347,1151.8347 0 0 1 -53.2539,9.9551 1151.1618,1151.1618 0 0 1 -63.0605,7.6543 1151.8347,1151.8347 0 0 1 -55.2129,4.6934 1151.1618,1151.1618 0 0 1 -59.2246,2.3007 1149.5253,1149.5253 0 0 1 -955.701203,-509.2695 l 2.294922,0.1094 A 1151.8347,1151.8347 0 0 1 -121.08008,1386.5703 Z"
         style="fill:#666666;stroke:#000000;stroke-width:8.3951149;stroke-miterlimit:4;stroke-dasharray:none"
         inkscape:connector-curvature="0" />
    </g>
  </g>
  <g
     transform="translate(0.66145831,0.66145831)"
     style="display:inline"
     inkscape:label="apfel"
     id="g1351"
     inkscape:groupmode="layer">
    <path
       id="path1347"
       d="m 375.60237,26.904092 c 5.12458,-1.516184 29.3232,-6.321728 52.95491,4.844381 21.86155,10.331824 24.17528,29.99555 24.40078,32.884647 4.42301,1.185384 8.83955,4.641947 10.90145,6.425957 0.34997,-2.246142 0.61385,-4.530429 0.71975,-6.709952 0.475,-9.724794 2.47497,-19.502086 4.7872,-25.976781 2.31067,-6.477464 4.29943,-16.968645 6.54956,-16.076318 2.24998,0.888124 8.84855,3.155574 7.35947,5.311408 -1.48201,2.15575 -6.18258,2.972966 -8.81722,9.800497 -2.63462,6.824629 -6.25476,17.200219 -6.77844,29.136084 -0.23491,5.355421 -0.90682,9.743804 -1.261,13.020019 6.46862,1.331876 7.42467,1.554329 13.04465,7.364131 6.26645,6.469921 9.61022,8.557047 17.48523,33.755325 7.86793,25.19559 31.78579,33.71858 32.29295,71.51245 0.51168,37.79524 -27.20676,60.72023 -39.20836,64.23416 -12.00306,3.51822 -15.62473,3.25946 -18.02614,3.90127 -2.40282,0.64192 -9.31229,2.25631 -12.33409,1.38615 -3.02902,-0.87426 -8.75286,-1.10998 -12.65472,0.16499 -3.90199,1.27351 -14.17347,-1.03087 -26.03861,-9.71087 -11.87079,-8.68411 -25.39078,-28.31492 -27.93472,-38.34461 -2.54941,-10.024 -7.39546,-34.34801 6.45337,-57.69861 13.84157,-23.35616 20.01858,-34.71363 25.55078,-49.11708 5.53082,-14.401996 15.06191,-22.454028 24.04706,-26.537875 0,0 5.36409,-2.86921 13.22509,-1.716468 0.43056,-1.780025 0.8503,-3.741226 1.21666,-5.775168 -4.49252,-5.026478 -8.83908,-6.612695 -11.17827,-7.096852 -8.13469,11.855456 -24.20463,16.294436 -50.27607,9.121623 -26.72206,-7.346893 -37.29044,-28.789637 -38.49397,-32.503008 -1.205,-3.717526 -6.02395,-9.654892 -8.08815,-12.52556 4.35188,0.928747 14.97065,-1.553333 20.10084,-3.073854"
       style="display:inline;fill:#ffff00;stroke:#666666;stroke-width:1.74175215;stroke-miterlimit:4;stroke-dasharray:none;filter:url(#filter1309)"
       inkscape:connector-curvature="0" />
    <path
       id="path1349"
       d="m 15.485741,294.2267 c 11.025268,-10.05024 25.551083,-22.52548 52.732645,-15.21796 0,0 7.874845,2.65314 13.63536,3.07239 0.430279,-6.63897 -1.80695,-12.77947 -2.609345,-15.27356 -2.638383,-7.85963 -9.560708,-10.659 -10.228801,-11.36672 -0.697469,-0.73315 1.871485,-2.91837 3.897171,-3.57723 2.023987,-0.66327 1.893625,1.43454 2.865289,2.60589 4.349468,3.41717 7.240263,12.62343 7.967492,16.91914 0.592213,3.49251 0.435566,7.81367 0.474272,10.74921 3.088984,-0.014 10.787026,-0.17221 17.030066,-1.3939 7.99713,-1.56792 29.47256,-0.67088 39.8727,12.20086 10.4036,12.86843 18.89927,24.6386 17.47759,49.25684 -1.41872,24.61082 -18.12771,44.79211 -21.92302,49.93832 -3.79256,5.14005 -13.45354,15.22739 -25.80746,21.46895 -12.351506,6.23673 -28.42683,1.74557 -32.003364,1.37217 -3.571247,-0.37894 -12.456224,-0.4796 -16.060316,0.26287 -3.602513,0.74149 -23.381742,0.76226 -33.971072,-10.57028 C 18.249626,393.33533 6.0923597,381.67659 1.474363,356.51368 -3.1500357,331.34932 4.465317,304.27942 15.48573,294.22674"
       style="display:inline;fill:#ff0000;stroke:#666666;stroke-width:1.51564479;stroke-miterlimit:4;stroke-dasharray:none;filter:url(#filter1321)"
       inkscape:connector-curvature="0" />
  </g>
  <g
     inkscape:groupmode="layer"
     id="g889"
     inkscape:label="apfel Kopie"
     style="display:none"
     transform="translate(0.66145831,0.66145831)">
    <path
       inkscape:connector-curvature="0"
       style="display:inline;fill:#ffff00;stroke:#666666;stroke-width:1.74175215;stroke-miterlimit:4;stroke-dasharray:none"
       d="m 375.60237,26.904092 c 5.12458,-1.516184 29.3232,-6.321728 52.95491,4.844381 21.86155,10.331824 24.17528,29.99555 24.40078,32.884647 4.42301,1.185384 8.83955,4.641947 10.90145,6.425957 0.34997,-2.246142 0.61385,-4.530429 0.71975,-6.709952 0.475,-9.724794 2.47497,-19.502086 4.7872,-25.976781 2.31067,-6.477464 4.29943,-16.968645 6.54956,-16.076318 2.24998,0.888124 8.84855,3.155574 7.35947,5.311408 -1.48201,2.15575 -6.18258,2.972966 -8.81722,9.800497 -2.63462,6.824629 -6.25476,17.200219 -6.77844,29.136084 -0.23491,5.355421 -0.90682,9.743804 -1.261,13.020019 6.46862,1.331876 7.42467,1.554329 13.04465,7.364131 6.26645,6.469921 9.61022,8.557047 17.48523,33.755325 7.86793,25.19559 31.78579,33.71858 32.29295,71.51245 0.51168,37.79524 -27.20676,60.72023 -39.20836,64.23416 -12.00306,3.51822 -15.62473,3.25946 -18.02614,3.90127 -2.40282,0.64192 -9.31229,2.25631 -12.33409,1.38615 -3.02902,-0.87426 -8.75286,-1.10998 -12.65472,0.16499 -3.90199,1.27351 -14.17347,-1.03087 -26.03861,-9.71087 -11.87079,-8.68411 -25.39078,-28.31492 -27.93472,-38.34461 -2.54941,-10.024 -7.39546,-34.34801 6.45337,-57.69861 13.84157,-23.35616 20.01858,-34.71363 25.55078,-49.11708 5.53082,-14.401996 15.06191,-22.454028 24.04706,-26.537875 0,0 5.36409,-2.86921 13.22509,-1.716468 0.43056,-1.780025 0.8503,-3.741226 1.21666,-5.775168 -4.49252,-5.026478 -8.83908,-6.612695 -11.17827,-7.096852 -8.13469,11.855456 -24.20463,16.294436 -50.27607,9.121623 -26.72206,-7.346893 -37.29044,-28.789637 -38.49397,-32.503008 -1.205,-3.717526 -6.02395,-9.654892 -8.08815,-12.52556 4.35188,0.928747 14.97065,-1.553333 20.10084,-3.073854"
       id="path885" />
    <path
       inkscape:connector-curvature="0"
       style="display:inline;fill:#ff0000;stroke:#666666;stroke-width:1.51564479;stroke-miterlimit:4;stroke-dasharray:none"
       d="m 15.485741,294.2267 c 11.025268,-10.05024 25.551083,-22.52548 52.732645,-15.21796 0,0 7.874845,2.65314 13.63536,3.07239 0.430279,-6.63897 -1.80695,-12.77947 -2.609345,-15.27356 -2.638383,-7.85963 -9.560708,-10.659 -10.228801,-11.36672 -0.697469,-0.73315 1.871485,-2.91837 3.897171,-3.57723 2.023987,-0.66327 1.893625,1.43454 2.865289,2.60589 4.349468,3.41717 7.240263,12.62343 7.967492,16.91914 0.592213,3.49251 0.435566,7.81367 0.474272,10.74921 3.088984,-0.014 10.787026,-0.17221 17.030066,-1.3939 7.99713,-1.56792 29.47256,-0.67088 39.8727,12.20086 10.4036,12.86843 18.89927,24.6386 17.47759,49.25684 -1.41872,24.61082 -18.12771,44.79211 -21.92302,49.93832 -3.79256,5.14005 -13.45354,15.22739 -25.80746,21.46895 -12.351506,6.23673 -28.42683,1.74557 -32.003364,1.37217 -3.571247,-0.37894 -12.456224,-0.4796 -16.060316,0.26287 -3.602513,0.74149 -23.381742,0.76226 -33.971072,-10.57028 C 18.249626,393.33533 6.0923597,381.67659 1.474363,356.51368 -3.1500357,331.34932 4.465317,304.27942 15.48573,294.22674"
       id="path887" />
  </g>
</svg>
